<?xml version="1.0" encoding="utf-8"?>
<!-- Generator: Adobe Illustrator 27.5.0, SVG Export Plug-In . SVG Version: 6.00 Build 0)  -->
<svg version="1.1" xmlns="http://www.w3.org/2000/svg" xmlns:xlink="http://www.w3.org/1999/xlink" x="0px" y="0px"
	 viewBox="0 0 500 500" style="enable-background:new 0 0 500 500;" xml:space="preserve">
<g id="BACKGROUND">
	<rect style="fill:#FFFFFF;" width="500" height="500"/>
</g>
<g id="OBJECTS">
	<g>
		<g>
			<path d="M36.323,381.642c3.908,0,7.815,0,11.722,0c10.539,0,21.077,0,31.616,0c15.624,0,31.249,0,46.873,0
				c19.062,0,38.125,0,57.187,0c20.806,0,41.611,0,62.417,0c21.145,0,42.289,0,63.434,0c19.581,0,39.162,0,58.743,0
				c16.606,0,33.213,0,49.819,0c11.939,0,23.879,0,35.818,0c5.64,0,11.291,0.102,16.93,0c0.246-0.005,0.493,0,0.74,0
				c1.93,0,1.934-3,0-3c-3.907,0-7.815,0-11.722,0c-10.538,0-21.077,0-31.616,0c-15.624,0-31.249,0-46.873,0
				c-19.062,0-38.125,0-57.187,0c-20.806,0-41.611,0-62.417,0c-21.145,0-42.289,0-63.434,0c-19.581,0-39.162,0-58.742,0
				c-16.606,0-33.213,0-49.819,0c-11.939,0-23.879,0-35.818,0c-5.64,0-11.291-0.102-16.93,0c-0.247,0.004-0.494,0-0.74,0
				C34.393,378.642,34.39,381.642,36.323,381.642L36.323,381.642z"/>
		</g>
		<path style="fill:#DBECF5;" d="M99.527,369.499c0,0-98.87-49.281-71.023-133.669c22.985-69.654,74.932-56.158,104.905-78.964
			c29.973-22.805,85.683-85.156,164.85-57.401c79.167,27.755,40.615,109.094,99.692,147.863
			c59.077,38.769,51.801,110.305-30.299,130.247C285.554,397.517,156.866,387.961,99.527,369.499z"/>
		<g>
			<path style="fill:#DBECF5;" d="M443.313,409.862c0,3.884-19.018,7.032-42.478,7.032c-23.46,0-42.478-3.148-42.478-7.032
				c0-3.883,19.018-7.032,42.478-7.032C424.295,402.83,443.313,405.978,443.313,409.862z"/>
			<g>
				<path d="M420.546,366.848c-1.225-5.116-1.012-10.826-0.22-15.973c1.409-9.16,6.04-17.362,8.828-26.129
					c2.643-8.31,4.234-16.895,4.996-25.576c0.825-9.392,0.948-18.935-0.194-28.307c-0.467-3.829-0.994-7.878-2.333-11.525
					c-0.33-0.899-1.78-0.51-1.446,0.399c1.075,2.927,1.576,6.138,2.023,9.206c1.32,9.051,1.299,18.3,0.671,27.407
					c-0.618,8.962-2.08,17.841-4.682,26.447c-1.21,4.001-2.645,7.93-4.226,11.799c-1.893,4.629-3.817,9.113-4.767,14.056
					c-1.146,5.965-1.526,12.623-0.096,18.596C419.324,368.185,420.771,367.788,420.546,366.848L420.546,366.848z"/>
			</g>
			<g>
				<path d="M446.225,263.567c-1.739,1.637-3.065,3.866-4.237,5.915c-3.639,6.359-5.962,13.466-7.629,20.57
					c-1.518,6.466-2.463,13.055-3.062,19.666c-0.087,0.961,1.413,0.955,1.5,0c0.934-10.299,2.712-20.649,6.308-30.379
					c1.695-4.586,3.806-9.195,6.794-13.101c0.403-0.526,0.876-1.129,1.388-1.611C447.99,263.965,446.928,262.905,446.225,263.567
					L446.225,263.567z"/>
			</g>
			<g>
				<path d="M440.512,307.323c-1.298,0.66-2.474,1.662-3.542,2.634c-2.831,2.579-5.119,5.757-6.91,9.13
					c-1.504,2.832-2.668,5.833-3.576,8.905c-0.274,0.928,1.173,1.324,1.446,0.399c2.112-7.14,5.884-14.676,12.174-19.046
					c0.374-0.26,0.758-0.52,1.164-0.727C442.13,308.181,441.372,306.886,440.512,307.323L440.512,307.323z"/>
			</g>
			<path style="fill:#70ACAD;" d="M430.248,269.527c0,0-3.692,17.81-27.801,21.068c-15.204,1.738-22.154-3.687-22.154-3.687
				s6.733-5.001,10.86-20.638c4.127-15.638,11.077-20.416,23.674-22.154C427.425,242.378,434.158,253.672,430.248,269.527z"/>
			<path style="fill:#70ACAD;" d="M450.013,253.455c0,0-6.95,11.294,0,23.891c6.95,12.597,23.457,18.027,27.149,24.977
				c0,0,6.081-12.815,4.995-30.624S461.742,240.858,450.013,253.455z"/>
			<path style="fill:#70ACAD;" d="M444.034,302.47c-1.995,1.499-3.484,3.596-4.232,5.976c-1.162,3.697-2.278,9.904-0.432,17.552
				c3.041,12.597,23.24,31.71,31.71,37.14c0,0,4.972-13.251,5.213-27.366C476.719,310.851,463.612,287.763,444.034,302.47z"/>
			<g>
				<path d="M380.493,287.631c2.113-0.645,4.106-1.917,5.834-3.257c4.144-3.214,7.07-7.715,8.67-12.687
					c0.933-2.9,1.226-5.932,2.415-8.758c1.049-2.492,2.515-4.826,4.274-6.877c3.34-3.896,7.934-7.128,13.11-7.86
					c6.831-0.966,12.248,3.302,15.573,8.916c0.492,0.83,1.789,0.076,1.295-0.757c-2.943-4.969-7.404-9.113-13.359-9.721
					c-5.156-0.527-10.19,1.72-14.128,4.902c-4.232,3.42-7.529,8.189-9.074,13.418c-0.961,3.254-1.372,6.529-2.851,9.634
					c-1.184,2.487-2.756,4.775-4.705,6.725c-2.038,2.038-4.672,4.027-7.453,4.877C379.174,286.466,379.566,287.914,380.493,287.631
					L380.493,287.631z"/>
			</g>
			<g>
				<path d="M450.392,254.102c0.869-0.488,2.311-0.759,3.498-0.779c3.43-0.057,6.581,1.683,9.061,3.935
					c4.544,4.126,7.702,9.944,9.971,15.58c1.742,4.326,2.958,8.91,3.347,13.566c0.128,1.532,0.173,3.075,0.092,4.611
					c-0.022,0.423-0.055,0.844-0.101,1.265c-0.036,0.33,0.001,0.058-0.038,0.287c-0.16,0.944,1.285,1.35,1.447,0.399
					c0.312-1.84,0.278-3.763,0.168-5.617c-0.286-4.842-1.428-9.626-3.168-14.146c-2.294-5.96-5.513-12.074-10.162-16.542
					c-2.647-2.544-5.959-4.55-9.69-4.813c-1.701-0.12-3.666,0.107-5.183,0.958C448.793,253.28,449.548,254.576,450.392,254.102
					L450.392,254.102z"/>
			</g>
			<path style="fill:#E15672;" d="M398.321,360.749c0,0,6.733,51.475,7.819,53.647c1.086,2.172,29.104,3.041,38.878,0l6.299-53.647
				H398.321z"/>
			<path style="fill:#C44161;" d="M411.082,360.749h-12.761c0,0,6.733,51.475,7.819,53.647c0.875,1.749,19.219,2.652,31.431,1.348
				C416.554,401.963,411.993,374.776,411.082,360.749z"/>
			<g>
				<path d="M444.034,303.22c2.947-0.195,6.119,0.831,8.796,2.244c7.437,3.927,11.554,11.809,13.637,19.659
					c2.246,8.464,2.523,17.366,2.126,26.069c-0.044,0.965,1.456,0.963,1.5,0c0.37-8.114,0.125-16.359-1.654-24.313
					c-1.154-5.158-3.002-10.282-6.026-14.653c-3.494-5.052-8.651-8.996-14.761-10.172c-1.171-0.225-2.421-0.414-3.619-0.335
					C443.076,301.783,443.069,303.284,444.034,303.22L444.034,303.22z"/>
			</g>
			<g>
				<path style="fill:#538C8C;" d="M457.273,323.566c0.714,1.886,1.427,3.772,2.141,5.659c0.142,0.375,0.333,0.688,0.689,0.897
					c0.322,0.188,0.795,0.268,1.156,0.151c0.715-0.231,1.345-1.059,1.048-1.845c-0.714-1.886-1.427-3.772-2.141-5.659
					c-0.142-0.375-0.333-0.688-0.689-0.897c-0.322-0.188-0.795-0.268-1.156-0.151C457.607,321.952,456.976,322.78,457.273,323.566
					L457.273,323.566z"/>
			</g>
			<g>
				<path style="fill:#538C8C;" d="M453.943,326.649c0,0.072,0,0.145,0,0.217c-0.008,0.207,0.035,0.399,0.129,0.578
					c0.061,0.186,0.164,0.347,0.31,0.483c0.136,0.146,0.297,0.25,0.483,0.31c0.179,0.094,0.371,0.137,0.578,0.129
					c0.133-0.018,0.266-0.036,0.399-0.054c0.254-0.071,0.475-0.2,0.662-0.386c0.078-0.101,0.156-0.202,0.234-0.304
					c0.136-0.234,0.204-0.486,0.205-0.757c0-0.072,0-0.145,0-0.217c0.008-0.206-0.035-0.399-0.129-0.578
					c-0.061-0.186-0.164-0.347-0.31-0.483c-0.136-0.146-0.297-0.25-0.483-0.31c-0.179-0.094-0.371-0.137-0.578-0.129
					c-0.133,0.018-0.266,0.036-0.399,0.054c-0.254,0.071-0.475,0.2-0.662,0.386c-0.078,0.101-0.156,0.202-0.235,0.303
					C454.012,326.126,453.944,326.379,453.943,326.649L453.943,326.649z"/>
			</g>
			<g>
				<path style="fill:#538C8C;" d="M458.787,303.872c0.156,0.111,0.31,0.224,0.461,0.341c-0.101-0.078-0.202-0.156-0.304-0.234
					c0.926,0.72,1.756,1.553,2.473,2.481c-0.078-0.101-0.156-0.202-0.234-0.304c0.363,0.475,0.695,0.972,0.995,1.489
					c0.394,0.679,1.373,0.976,2.052,0.538c0.685-0.441,0.96-1.326,0.538-2.052c-1.12-1.931-2.653-3.559-4.468-4.849
					c-0.301-0.214-0.813-0.246-1.156-0.151c-0.348,0.096-0.725,0.365-0.896,0.689c-0.184,0.348-0.276,0.77-0.151,1.156
					C458.224,303.366,458.453,303.634,458.787,303.872L458.787,303.872z"/>
			</g>
			<g>
				<path style="fill:#538C8C;" d="M459.588,278.631c1.988,2.078,3.883,4.243,5.68,6.489c0.492,0.616,1.615,0.552,2.121,0
					c0.6-0.653,0.525-1.465,0-2.121c-1.797-2.245-3.692-4.41-5.68-6.489c-0.543-0.568-1.582-0.588-2.121,0
					C459.028,277.119,459.008,278.025,459.588,278.631L459.588,278.631z"/>
			</g>
			<g>
				<path style="fill:#538C8C;" d="M460.898,270.805c0.072,0.072,0.145,0.145,0.217,0.217c0.136,0.146,0.297,0.25,0.483,0.31
					c0.179,0.094,0.371,0.137,0.578,0.129c0.207,0.008,0.399-0.035,0.578-0.129c0.186-0.06,0.347-0.164,0.483-0.31
					c0.078-0.101,0.156-0.202,0.235-0.304c0.136-0.234,0.204-0.486,0.205-0.757c-0.018-0.133-0.036-0.266-0.054-0.399
					c-0.071-0.254-0.2-0.475-0.386-0.662c-0.072-0.072-0.145-0.145-0.217-0.217c-0.136-0.146-0.297-0.25-0.483-0.31
					c-0.179-0.094-0.371-0.137-0.578-0.129c-0.207-0.008-0.399,0.035-0.578,0.129c-0.186,0.061-0.347,0.164-0.483,0.31
					c-0.078,0.101-0.156,0.202-0.235,0.304c-0.136,0.234-0.204,0.486-0.205,0.757c0.018,0.133,0.036,0.266,0.053,0.399
					C460.584,270.397,460.712,270.618,460.898,270.805L460.898,270.805z"/>
			</g>
			<g>
				<path style="fill:#538C8C;" d="M473.7,261.159c0.21,0.331,0.392,0.678,0.547,1.038c-0.05-0.12-0.101-0.239-0.151-0.358
					c0.249,0.592,0.419,1.211,0.507,1.848c-0.018-0.133-0.036-0.266-0.054-0.399c0.007,0.053,0.013,0.106,0.019,0.159
					c-0.008,0.206,0.035,0.399,0.129,0.578c0.06,0.186,0.164,0.347,0.31,0.483c0.26,0.26,0.687,0.456,1.061,0.439
					c0.388-0.017,0.79-0.145,1.061-0.439c0.251-0.274,0.483-0.674,0.439-1.061c-0.077-0.676-0.189-1.339-0.415-1.983
					c-0.223-0.633-0.503-1.252-0.862-1.819c-0.206-0.326-0.52-0.586-0.896-0.689c-0.359-0.099-0.837-0.054-1.156,0.151
					c-0.32,0.206-0.602,0.514-0.689,0.896C473.461,260.389,473.482,260.815,473.7,261.159L473.7,261.159z"/>
			</g>
			<g>
				<path style="fill:#538C8C;" d="M420.38,271.168c-3.318,3.234-6.954,6.101-10.877,8.565c-0.685,0.431-0.956,1.337-0.538,2.052
					c0.4,0.684,1.364,0.971,2.052,0.538c4.132-2.595,7.991-5.628,11.485-9.034C423.886,271.939,421.764,269.819,420.38,271.168
					L420.38,271.168z"/>
			</g>
			<g>
				<path style="fill:#538C8C;" d="M413.202,262.802c-0.247,0.156-0.481,0.338-0.703,0.529c-0.132,0.113-0.255,0.236-0.367,0.368
					c-0.303,0.354-0.585,0.733-0.772,1.162c-0.11,0.172-0.169,0.358-0.178,0.558c-0.045,0.199-0.036,0.399,0.027,0.598
					c0.046,0.195,0.136,0.365,0.268,0.51c0.106,0.163,0.246,0.292,0.421,0.386c0.119,0.05,0.239,0.101,0.358,0.151
					c0.266,0.072,0.532,0.072,0.797,0c0.119-0.05,0.239-0.101,0.358-0.151c0.225-0.133,0.405-0.313,0.538-0.538
					c0.113-0.259,0.257-0.503,0.43-0.727c-0.078,0.101-0.156,0.202-0.235,0.304c0.179-0.23,0.385-0.435,0.615-0.613
					c-0.101,0.078-0.202,0.156-0.304,0.234c0.083-0.064,0.169-0.123,0.258-0.179c0.326-0.206,0.586-0.52,0.689-0.897
					c0.063-0.199,0.072-0.399,0.027-0.598c-0.009-0.2-0.068-0.386-0.178-0.558c-0.206-0.32-0.514-0.602-0.896-0.689
					c-0.133-0.018-0.266-0.036-0.399-0.054C413.688,262.599,413.436,262.667,413.202,262.802L413.202,262.802z"/>
			</g>
			<g>
				<path style="fill:#538C8C;" d="M400.694,275.055c-0.627,1.116-1.311,2.199-2.053,3.241c-0.177,0.249-0.358,0.495-0.542,0.739
					c-0.046,0.061-0.093,0.121-0.139,0.183c-0.128,0.172,0.157-0.2,0.025-0.031c-0.106,0.135-0.212,0.271-0.32,0.405
					c-0.406,0.507-0.827,1.001-1.26,1.485c-0.523,0.585-0.62,1.553,0,2.121c0.571,0.525,1.562,0.624,2.121,0
					c1.817-2.03,3.424-4.252,4.758-6.628c0.384-0.684,0.186-1.669-0.538-2.052C402.037,274.143,401.104,274.325,400.694,275.055
					L400.694,275.055z"/>
			</g>
			<path style="fill:#EF819C;" d="M417.336,360.749h-3.009l-0.086,0.714c0,0,21.013,1.237,25.737,6.32
				c3.991,4.295,1.238,37.442,0.288,47.621c1.832-0.272,3.455-0.604,4.751-1.007l6.299-53.647H417.336z"/>
		</g>
		<g>
			<polygon style="fill:#4045BC;" points="160.21,397.517 324.974,397.517 385.354,418.368 211.165,418.368 			"/>
			<polygon style="fill:#38273F;" points="160.21,403.816 160.21,397.517 211.165,418.368 385.354,418.368 385.354,425.644 
				211.273,425.644 			"/>
			<path style="fill:#DBECF5;" d="M160.21,403.816c0,0-38.58,12.271-23.568,18.19c15.012,5.918,74.632,3.638,74.632,3.638
				L160.21,403.816z"/>
		</g>
		<g>
			<ellipse style="fill:#DBECF5;" cx="112.101" cy="437.046" rx="33.642" ry="8.308"/>
			<path style="fill:#724DB7;" d="M104.379,392.332v42.787c0,0,4.344,7.819,20.633,9.122c16.289,1.303,22.371-7.602,22.371-7.602
				v-44.308C147.383,392.332,130.659,397.327,104.379,392.332z"/>
			<path style="fill:#724DB7;" d="M104.379,427.277c-0.569-0.11-1.161-0.238-1.671-0.371c-0.488-0.128-0.973-0.27-1.452-0.428
				c-0.278-0.092-0.554-0.188-0.829-0.29c-0.171-0.064-0.342-0.13-0.512-0.198c-0.028-0.013-0.047-0.021-0.082-0.036
				c-0.893-0.403-1.758-0.864-2.583-1.395c-0.214-0.138-0.426-0.28-0.634-0.427c-0.04-0.028-0.227-0.171-0.334-0.25
				c-0.33-0.268-0.655-0.541-0.965-0.832c-0.345-0.324-0.677-0.663-0.994-1.015c-0.155-0.173-0.298-0.359-0.456-0.528
				c-0.03-0.032-0.041-0.042-0.062-0.064c-0.014-0.02-0.018-0.027-0.035-0.053c-0.514-0.743-1.007-1.484-1.423-2.288
				c-0.136-0.262-0.257-0.53-0.381-0.797c0.111,0.217-0.282-0.717-0.345-0.903c-0.277-0.812-0.496-1.644-0.658-2.487
				c-0.04-0.208-0.067-0.419-0.11-0.626c-0.003-0.012-0.003-0.013-0.006-0.024c0-0.006,0-0.007-0.001-0.013
				c-0.026-0.347-0.069-0.693-0.09-1.04c-0.053-0.886-0.046-1.775,0.021-2.66c0.017-0.22,0.043-0.439,0.067-0.658
				c-0.001,0.094,0.114-0.711,0.151-0.893c0.151-0.741,0.347-1.473,0.594-2.187c0.082-0.237,0.586-1.344,0.158-0.462
				c0.127-0.263,0.243-0.531,0.377-0.79c0.156-0.301,0.323-0.597,0.502-0.885c0.116-0.186,0.558-0.715,0.543-0.723
				c0.297-0.303,0.603-0.603,0.881-0.915c0.037-0.028,0.074-0.055,0.112-0.077c0.72-0.418,1.301-0.783,2.06-1.009
				c1.113-0.331,2.347-0.356,3.252-0.164c0.635,0.134,1.26,0.327,1.864,0.565c0.094,0.042,0.252,0.111,0.309,0.14
				c0.28,0.144,0.562,0.282,0.837,0.437c0.496,0.279,0.978,0.585,1.443,0.913c0.096,0.067,0.189,0.138,0.283,0.207
				c0.056,0.043,0.119,0.092,0.167,0.132v-7.052c-2.103-0.98-4.389-1.544-6.611-1.459c-4.781,0.183-8.972,2.968-11.016,7.25
				c-3.607,7.555-2.306,17.004,3.251,23.269c3.715,4.188,8.972,6.264,14.376,7.128V427.277z"/>
			<path d="M114.071,389.861c-10.751,0.326-9.692,2.47-9.692,2.47c26.281,4.995,43.005,0,43.005,0
				C149.908,389.838,123.842,389.565,114.071,389.861z"/>
			<path style="fill:#593E9B;" d="M110.536,393.346c-1.99-0.281-4.039-0.612-6.157-1.015v42.787c0,0,4.344,7.819,20.633,9.122
				c1.044,0.084,2.045,0.124,3.007,0.129C114.738,430.003,111.122,399.293,110.536,393.346z"/>
			<path style="opacity:0.53;fill:#7D61C1;" d="M123.364,394.482c1.774,0.399,3.579,0.796,5.375,1.179
				c12.271,2.616,11.729,11.304,12.054,22.707c0.314,10.985-1.412,30.081-30.023,22.127c3.178,1.678,7.762,3.228,14.242,3.746
				c16.289,1.303,22.371-7.602,22.371-7.602v-44.308C147.383,392.332,138.438,394.997,123.364,394.482z"/>
			<g>
				<path style="fill:#B6A9E0;" d="M141.595,398.656c0.352,5.423,0.443,10.858,0.275,16.29c-0.06,1.931,2.94,1.929,3,0
					c0.169-5.432,0.077-10.867-0.275-16.29C144.471,396.739,141.47,396.725,141.595,398.656L141.595,398.656z"/>
			</g>
		</g>
		<g>
			<g>
				<path d="M258.903,114.513c0,11.337,0,22.673,0,34.01c0,1.586,0,3.173,0,4.759c0,0.965,1.5,0.967,1.5,0
					c0-11.337,0-22.673,0-34.01c0-1.586,0-3.173,0-4.759C260.403,113.548,258.903,113.546,258.903,114.513L258.903,114.513z"/>
			</g>
			<polygon style="fill:#1C1421;" points="192.377,68.577 116.142,111.255 187.816,147.418 261.119,114.513 			"/>
			<path style="fill:#411A24;" d="M149.481,139.273c0,0-3.91,19.982-3.475,28.887c0.434,8.905,2.606,29.248-7.602,35.258
				c-10.208,6.009-12.163,12.742-10.425,20.561c0,0-10.425,9.991-3.692,19.765s31.059,26.498,73.629,18.244
				c42.57-8.253,50.087-17.81,52.084-23.24c1.997-5.43-1.695-10.643-4.953-11.511c0,0,4.127-9.991-2.172-16.724
				s-8.688-14.986-10.86-26.715c-2.172-11.729-2.172-19.33-2.172-19.33s6.95-10.208,1.52-25.195
				c-5.43-14.986-28.67-26.281-50.823-17.81S149.481,139.273,149.481,139.273z"/>
			<path style="fill:#33131C;" d="M150.776,181.339c1.118,4.118,0.886,8.57-0.293,12.693c-0.549,2.085-1.43,4.066-2.428,5.974
				c-1.081,1.863-2.282,3.663-3.684,5.298l-2.114,2.414c-0.697,0.789-1.42,1.558-2.057,2.394l-0.992,1.227
				c-0.317,0.418-0.61,0.854-0.916,1.281c-0.634,0.84-1.144,1.756-1.697,2.647c-1.013,1.829-1.871,3.751-2.38,5.768
				c-0.517,1.983-0.769,4.163-0.24,6.089l0.069,0.252l-0.192,0.125c-0.781,0.508-1.534,1.122-2.229,1.77
				c-0.691,0.657-1.35,1.353-1.924,2.119c-0.563,0.772-1.038,1.607-1.393,2.499c-0.335,0.899-0.516,1.851-0.545,2.823
				c-0.043-0.967,0.05-1.953,0.349-2.891c0.31-0.931,0.749-1.817,1.282-2.645c0.549-0.815,1.168-1.587,1.865-2.282
				c0.699-0.697,1.431-1.342,2.255-1.921l-0.122,0.376c-0.678-2.182-0.464-4.397,0.004-6.516c0.508-2.117,1.376-4.118,2.399-6.017
				c0.556-0.923,1.074-1.873,1.712-2.741c0.309-0.441,0.604-0.892,0.924-1.324l0.999-1.266c0.646-0.862,1.402-1.626,2.118-2.424
				l2.115-2.36c2.746-3.172,4.906-6.855,6.186-10.861C151.115,189.85,151.576,185.523,150.776,181.339z"/>
			<path style="fill:#33131C;" d="M158.821,184.015c0,0-1.104,7.385-8.045,17.81c-6.941,10.425-14.745,17.484-8.726,31.71
				c6.02,14.226,9.259,29.482,48.689,24.135c39.43-5.348,45.62-28.805,42.362-39.23c-3.258-10.425-12.15-10.129-12.55-37.101
				C220.151,154.367,169.572,149.264,158.821,184.015z"/>
			<path style="fill:#E37565;" d="M228.757,159.472c0,0,1.303,38.443-34.1,43.656c-12.163,2.172-31.059-8.253-35.837-19.113
				c0,0-6.516,3.258-12.38-4.344c-5.864-7.602-4.778-18.244,1.086-18.244c5.864,0,7.819,7.819,7.819,7.819s1.52-11.077,3.91-14.335
				c0,0,16.312,1.303,26.4-14.986c10.088-16.29,7.482-20.851,7.482-20.851s7.259-0.594,12.38,2.606
				C214.205,127.11,227.454,137.97,228.757,159.472z"/>
			<path style="fill:#38273F;" d="M180.54,121.463c21.084-8.062,43.14,1.782,49.902,15.67l-1.679-25.227
				c0,0-10.431-13.466-38.667-12.38c-28.235,1.086-40.615,14.769-40.615,14.769v24.977
				C149.481,139.273,158.386,129.934,180.54,121.463z"/>
			<g>
				<path d="M148.217,170.984c-0.036-0.349-0.026-0.703,0.005-1.052c0.016-0.181-0.061,0.27,0.005-0.023
					c0.014-0.061,0.024-0.123,0.039-0.184c0.015-0.061,0.035-0.12,0.05-0.18c0.071-0.28-0.069,0.128,0.005-0.026
					c0.031-0.066,0.079-0.123,0.111-0.188c-0.036,0.075-0.144,0.114-0.009,0.038c-0.05,0.029-0.186,0.091-0.021,0.035
					c-0.049,0.04-0.104,0.059-0.165,0.056c-0.091,0.006-0.077,0.006,0.042,0.001c0.191,0.211,0.083-0.099,0.035,0.002
					c-0.034,0.072,0.302-0.075-0.024-0.018c-0.062,0.011-0.151-0.063-0.039-0.008c0.036,0.017,0.064,0.048,0.099,0.066
					c-0.172-0.09-0.15-0.136-0.022,0.002c0.08,0.086,0.158,0.176,0.238,0.262c0.164,0.173-0.11-0.171,0.073,0.097
					c0.062,0.091,0.126,0.181,0.187,0.273c0.172,0.26,0.331,0.528,0.485,0.799c1.393,2.455,2.319,4.883,3.309,7.489
					c0.264,0.694,0.524,1.39,0.771,2.091c0.202,0.573,0.769,0.955,1.384,0.786c0.555-0.152,0.989-0.808,0.786-1.384
					c-0.778-2.206-1.64-4.388-2.572-6.534c-0.609-1.403-1.243-2.819-2.053-4.12c-0.684-1.098-1.55-2.233-3.002-2.016
					c-1.713,0.256-2.117,2.289-1.968,3.738c0.062,0.604,0.473,1.125,1.125,1.125C147.652,172.109,148.28,171.592,148.217,170.984
					L148.217,170.984z"/>
			</g>
			<ellipse style="fill:#110013;" cx="181.523" cy="164.251" rx="4.132" ry="7.385"/>
			<path style="fill:#110013;" d="M215.917,164.251c0,4.078-1.85,7.385-4.133,7.385c-2.282,0-4.132-3.306-4.132-7.385
				s1.85-7.385,4.132-7.385C214.067,156.866,215.917,160.172,215.917,164.251z"/>
			<g>
				<path d="M198.899,160.656c-0.616,1.382-0.934,2.972-0.801,4.482c0.214,2.421,1.693,4.109,3.268,5.822
					c1.076,1.171,2.449,2.909,1.591,4.579c-0.283,0.55-0.801,0.976-1.376,1.191c-0.305,0.114-0.491,0.146-0.786,0.126
					c-0.07-0.005-0.186-0.055-0.17-0.033c-0.834-1.169-2.786-0.046-1.943,1.136c1.93,2.706,5.941,0.262,6.622-2.273
					c0.493-1.837-0.248-3.739-1.371-5.18c-1.099-1.411-2.729-2.611-3.345-4.343c-0.342-0.96-0.334-2.023-0.13-3.013
					c0.076-0.368,0.174-0.733,0.294-1.089c0.039-0.116,0.082-0.229,0.124-0.344c0.077-0.212-0.085,0.191-0.034,0.075
					C201.426,160.481,199.488,159.335,198.899,160.656L198.899,160.656z"/>
			</g>
			<g>
				<path d="M184.531,181.409c0.165,2.772,1.652,5.812,4.265,7.003c1.333,0.607,2.781,0.789,4.234,0.638
					c0.583-0.061,1.154-0.474,1.125-1.125c-0.025-0.557-0.498-1.19-1.125-1.125c-0.62,0.065-1.234,0.068-1.854,0.007
					c-0.065-0.006-0.208-0.046,0.051,0.007c-0.053-0.011-0.108-0.017-0.161-0.027c-0.13-0.023-0.26-0.05-0.389-0.082
					c-0.245-0.06-0.477-0.148-0.717-0.225c-0.185-0.059,0.046,0.024,0.069,0.031c-0.065-0.021-0.132-0.058-0.193-0.088
					c-0.084-0.04-0.166-0.082-0.248-0.127c-0.198-0.108-0.383-0.231-0.569-0.358c-0.256-0.175,0.147,0.137-0.081-0.064
					c-0.08-0.07-0.161-0.139-0.239-0.212c-0.152-0.143-0.296-0.294-0.432-0.452c-0.045-0.052-0.136-0.124-0.156-0.189
					c0.059,0.194,0.117,0.16,0.029,0.034c-0.023-0.033-0.047-0.065-0.07-0.098c-0.113-0.161-0.219-0.328-0.319-0.498
					c-0.086-0.149-0.168-0.301-0.244-0.455c-0.041-0.083-0.081-0.167-0.119-0.252c-0.015-0.033-0.029-0.067-0.044-0.1
					c-0.087-0.188,0.109,0.279,0.02,0.044c-0.21-0.554-0.384-1.115-0.497-1.697c-0.023-0.119-0.043-0.239-0.063-0.359
					c-0.055-0.336,0.029,0.292,0,0.001c-0.008-0.077-0.018-0.155-0.022-0.232c-0.035-0.586-0.492-1.153-1.125-1.125
					C185.076,180.31,184.493,180.78,184.531,181.409L184.531,181.409z"/>
			</g>
			<g>
				<path style="fill:#411A24;" d="M176.625,153.85c0.107-0.245,0.238-0.482,0.372-0.713c0.152-0.262,0.315-0.517,0.489-0.764
					c0.062-0.089,0.341-0.451,0.157-0.221c0.126-0.158,0.254-0.314,0.388-0.465c0.271-0.305,0.562-0.592,0.874-0.854
					c0.061-0.051,0.266-0.211,0.094-0.082c0.087-0.066,0.175-0.129,0.265-0.191c0.183-0.125,0.372-0.242,0.566-0.349
					c0.099-0.054,0.2-0.105,0.301-0.155c0.058-0.029,0.118-0.056,0.178-0.082c-0.016,0.007-0.162,0.065-0.041,0.019
					c0.237-0.09,0.476-0.169,0.722-0.23c0.101-0.025,0.203-0.046,0.305-0.066c0.069-0.014,0.139-0.025,0.208-0.035
					c-0.021,0.003-0.167,0.02-0.033,0.007c0.279-0.026,0.557-0.036,0.837-0.024c0.391,0.017,0.431,0.025,0.783,0.1
					c0.328,0.07,0.65,0.165,0.966,0.277c0.79,0.282,1.521,0.722,2.213,1.19c1.203,0.813,2.33-1.135,1.136-1.943
					c-2.298-1.554-5.184-2.485-7.873-1.391c-1.811,0.737-3.233,2.14-4.269,3.775c-0.215,0.339-0.422,0.691-0.583,1.06
					c-0.243,0.556-0.164,1.208,0.404,1.539C175.562,154.533,176.38,154.41,176.625,153.85L176.625,153.85z"/>
			</g>
			<g>
				<path style="fill:#411A24;" d="M208.919,151.694c0.113-0.109,0.236-0.207,0.359-0.304c-0.28,0.223,0.181-0.123,0.276-0.185
					c0.195-0.128,0.395-0.248,0.6-0.359c0.999-0.542,2.21-0.855,3.457-0.726c0.791,0.081,1.51,0.371,2.215,0.718
					c0.658,0.323,1.266,0.615,1.796,1.134c0.408,0.399,0.624,0.675,0.918,1.185c0.088,0.152,0.16,0.31,0.242,0.464
					c0.15,0.279-0.083-0.222-0.015-0.038c0.211,0.569,0.762,0.957,1.384,0.786c0.548-0.15,0.998-0.811,0.786-1.384
					c-0.232-0.625-0.567-1.199-0.97-1.729c-0.892-1.173-1.988-1.847-3.28-2.503c-2.499-1.27-5.387-1.146-7.809,0.23
					c-0.548,0.311-1.095,0.684-1.55,1.122C206.284,151.11,207.876,152.7,208.919,151.694L208.919,151.694z"/>
			</g>
			<path style="fill:#D35352;" d="M211.785,184.07c0.278,4.077,2.126,7.324,3.754,9.447c6.488-6.092,9.804-13.891,11.486-20.498
				C218.838,169.63,211.273,176.578,211.785,184.07z"/>
			<path style="fill:#D35352;" d="M158.821,184.015c2.287,5.197,7.809,10.29,14.276,13.955c1.393-0.304,2.731-0.893,3.93-1.786
				c4.846-3.61,5.603-10.794,1.691-16.045c-3.912-5.251-11.012-6.581-15.858-2.97c-2.266,1.688-3.625,4.16-4.044,6.848
				C158.817,184.017,158.821,184.015,158.821,184.015z"/>
			<path style="fill:#38273F;" d="M286.748,295.001c-4.778-25.629-7.894-43.005-79.096-85.792
				c-4.816,15.855-18.31,24.326-18.31,24.326c-13.135-8.905-16.246-24.326-16.246-24.326s-60.538,28.887-69.226,48.434
				c-8.688,19.547-28.235,80.796-21.285,98.172c6.95,17.376,94,38.71,109.578,34.366l-5.87-3.959c0,0-0.758-27.584,21.83-28.452
				l26.498,14.118h58.208C292.83,371.888,291.526,320.63,286.748,295.001z"/>
			<path style="fill:#FFFFFF;" d="M190.374,285.445l44.588-58.833c-7.771-5.32-16.793-11.082-27.31-17.402
				c-4.816,15.855-18.31,24.326-18.31,24.326c-13.135-8.905-16.246-24.326-16.246-24.326s-12.285,5.863-26.581,14.092
				L190.374,285.445z"/>
			<path style="fill:#EBB04B;" d="M190.374,328.015l68.16-83.422c-4.648-4.084-10.155-8.44-16.693-13.153l-51.467,67.471
				l-52.22-70.645c-5.948,3.648-11.903,7.572-17.184,11.545L190.374,328.015z"/>
			<g>
				<path d="M209.249,357.771c-0.409-3.746-2.239-6.57-5.606-8.321c-4.919-2.558-10.759-3.467-16.109-4.672
					c-7.802-1.757-15.511-3.668-23.119-6.149c-6.788-2.214-13.491-4.686-20.128-7.318c-3.456-1.371-6.906-2.768-10.309-4.267
					c0.186,0.324,0.371,0.648,0.557,0.971c0.724-6.516,1.448-13.032,2.172-19.548c0.16-1.437-2.092-1.426-2.25,0
					c-0.724,6.516-1.448,13.032-2.172,19.548c-0.039,0.349,0.235,0.829,0.557,0.971c8.557,3.768,17.319,7.135,26.153,10.191
					c7.292,2.522,14.668,4.734,22.188,6.466c6.253,1.44,12.739,2.508,18.798,4.673c3.674,1.313,6.57,3.341,7.019,7.455
					C207.154,359.195,209.406,359.21,209.249,357.771L209.249,357.771z"/>
			</g>
			<g>
				<path d="M133.409,326.89c-1.128,0.086-2.262,0.284-3.363,0.543c-1.966,0.463-3.965,1.19-5.516,2.521
					c-0.861,0.739-1.53,1.747-1.762,2.866c-0.123,0.594,0.174,1.216,0.786,1.384c0.558,0.153,1.26-0.188,1.384-0.786
					c0.042-0.201,0.106-0.389,0.165-0.584c0.056-0.185-0.084,0.14,0.04-0.082c0.055-0.099,0.105-0.2,0.164-0.297
					c0.052-0.085,0.112-0.164,0.164-0.248c0.101-0.162-0.109,0.111,0.062-0.076c0.148-0.161,0.293-0.321,0.455-0.469
					c0.077-0.07,0.156-0.136,0.235-0.203c0.193-0.164-0.069,0.036,0.093-0.071c0.192-0.127,0.377-0.259,0.575-0.378
					c0.391-0.234,0.799-0.434,1.216-0.617c-0.203,0.089,0.057-0.022,0.126-0.05c0.103-0.041,0.206-0.08,0.31-0.118
					c0.221-0.081,0.443-0.157,0.668-0.229c0.417-0.133,0.84-0.25,1.265-0.354c0.706-0.172,1.42-0.306,2.139-0.414
					c0.216-0.032,0.139-0.069-0.02,0.001c0.054-0.024,0.138-0.018,0.198-0.025c0.107-0.013,0.214-0.026,0.321-0.037
					c0.098-0.01,0.197-0.021,0.295-0.028c0.606-0.046,1.125-0.484,1.125-1.125C134.534,327.442,134.018,326.844,133.409,326.89
					L133.409,326.89z"/>
			</g>
			<path style="fill:#DBECF5;" d="M160.21,215.753c1.196,3.124,2.357,6.259,3.51,9.398l3.454,9.417
				c2.28,6.286,4.509,12.588,6.732,18.893l-1.475-0.261l8.042-10.165l8.095-10.122l0.768-0.96l0.777,0.953l9.133,11.203
				l9.075,11.251l-1.486,0.274l3.347-9.648l3.391-9.633l3.46-9.61c1.156-3.202,2.319-6.403,3.52-9.59
				c-0.949,3.272-1.936,6.53-2.93,9.787l-2.989,9.767l-3.058,9.744l-3.103,9.729l-0.476,1.491l-1.011-1.217l-9.234-11.12
				l-9.177-11.167l1.544-0.007l-8.15,10.077l-8.204,10.034l-0.994,1.216l-0.481-1.477c-2.073-6.356-4.139-12.714-6.154-19.089
				l-2.989-9.574C162.148,222.154,161.161,218.96,160.21,215.753z"/>
			<path style="fill:#E37565;" d="M234.621,371.888l-26.555-14.113c-22.528,0.915-21.773,28.448-21.773,28.448
				s13.36,9.122,17.704,11.511c4.344,2.389,16.072,8.905,19.113,8.688c3.041-0.217,8.036-0.869,8.471-3.692
				c0,0,1.955,2.606,6.081,1.303c4.127-1.303,4.344-3.475,3.91-5.647c-0.434-2.172-6.516-12.163-6.516-12.163
				s8.471,12.597,10.86,12.163c2.389-0.434,6.082-1.953,5.213-6.407C250.259,387.526,234.621,371.888,234.621,371.888z"/>
			<g>
				<path d="M232.111,402.199c-2.469-3.039-4.938-6.077-7.407-9.116c-0.355-0.436-0.709-0.873-1.064-1.309
					c-0.258-0.317-0.792-0.263-1.061,0c-0.314,0.307-0.254,0.748,0,1.061c2.469,3.039,4.938,6.077,7.407,9.116
					c0.355,0.436,0.709,0.873,1.064,1.31c0.257,0.317,0.792,0.263,1.061,0C232.425,402.953,232.365,402.512,232.111,402.199
					L232.111,402.199z"/>
			</g>
			<g>
				<g>
					<path d="M258.944,153.245c-4.863,6.116-2.548,14.263-3.288,21.385c-0.066,0.637,0.931,0.633,0.997,0
						c0.702-6.759-1.622-14.872,2.996-20.68C260.044,153.453,259.343,152.743,258.944,153.245L258.944,153.245z"/>
				</g>
				<g>
					<path d="M259.24,153.017c-1.717,7.08-1.464,14.395-1.173,21.617c0.026,0.639,1.023,0.643,0.997,0
						c-0.287-7.13-0.558-14.36,1.138-21.352C260.352,152.659,259.391,152.393,259.24,153.017L259.24,153.017z"/>
				</g>
				<g>
					<path d="M259.589,153.305c0.055,6.893,0.111,13.786,0.167,20.679c0.005,0.641,1.002,0.643,0.997,0
						c-0.055-6.893-0.111-13.786-0.167-20.679C260.581,152.664,259.584,152.662,259.589,153.305L259.589,153.305z"/>
				</g>
				<g>
					<path d="M259.59,153.627c1.394,0.644,1.628,2.502,1.939,3.839c0.425,1.827,0.765,3.675,1.015,5.534
						c0.489,3.638,0.63,7.316,0.455,10.982c-0.03,0.641,0.966,0.64,0.997,0c0.19-3.999-0.006-8.003-0.592-11.964
						c-0.293-1.982-0.682-3.951-1.175-5.893c-0.334-1.314-0.815-2.748-2.137-3.359C259.514,152.499,259.007,153.358,259.59,153.627
						L259.59,153.627z"/>
				</g>
				<g>
					<path d="M259.971,154.568c0.35,1.67,0.705,3.339,1.048,5.01c0.346,1.685,0.448,3.329,0.433,5.046
						c-0.032,3.578-0.069,7.156-0.104,10.734c-0.006,0.642,0.991,0.642,0.997,0c0.035-3.678,0.079-7.357,0.106-11.035
						c0.025-3.421-0.822-6.69-1.52-10.02C260.801,153.676,259.84,153.941,259.971,154.568L259.971,154.568z"/>
				</g>
				<g>
					<path d="M259.294,152.752c-2.634,1.406-3.737,4.279-4.241,7.066c-0.607,3.358-0.745,6.792-0.471,10.19
						c0.051,0.635,1.048,0.641,0.997,0c-0.251-3.117-0.161-6.261,0.337-9.35c0.439-2.716,1.278-5.656,3.88-7.046
						C260.364,153.311,259.861,152.45,259.294,152.752L259.294,152.752z"/>
				</g>
				<g>
					<path d="M258.527,154.638c-1.737,5.245-2.348,10.81-1.783,16.307c0.065,0.632,1.063,0.639,0.997,0
						c-0.557-5.418,0.035-10.871,1.748-16.042C259.69,154.293,258.728,154.031,258.527,154.638L258.527,154.638z"/>
				</g>
			</g>
			<g>
				<g>
					<path d="M260.359,154.529c4.863,6.116,2.548,14.263,3.288,21.385c0.066,0.637-0.931,0.633-0.997,0
						c-0.702-6.759,1.622-14.871-2.996-20.68C259.259,154.737,259.96,154.027,260.359,154.529L260.359,154.529z"/>
				</g>
				<g>
					<path d="M260.063,154.301c1.717,7.08,1.464,14.395,1.173,21.617c-0.026,0.639-1.023,0.643-0.997,0
						c0.287-7.131,0.558-14.36-1.138-21.352C258.951,153.943,259.912,153.677,260.063,154.301L260.063,154.301z"/>
				</g>
				<g>
					<path d="M259.714,154.589c-0.056,6.893-0.111,13.786-0.167,20.679c-0.005,0.641-1.002,0.643-0.997,0
						c0.056-6.893,0.111-13.786,0.167-20.679C258.723,153.947,259.719,153.946,259.714,154.589L259.714,154.589z"/>
				</g>
				<g>
					<path d="M259.714,154.91c-1.394,0.644-1.628,2.503-1.939,3.839c-0.425,1.827-0.765,3.674-1.015,5.534
						c-0.489,3.638-0.63,7.316-0.455,10.982c0.031,0.641-0.966,0.64-0.997,0c-0.19-3.999,0.006-8.003,0.592-11.964
						c0.293-1.982,0.682-3.951,1.175-5.893c0.333-1.314,0.815-2.748,2.137-3.358C259.789,153.782,260.296,154.641,259.714,154.91
						L259.714,154.91z"/>
				</g>
				<g>
					<path d="M259.331,155.852c-0.35,1.67-0.705,3.338-1.048,5.01c-0.346,1.686-0.449,3.329-0.433,5.046
						c0.032,3.578,0.069,7.156,0.104,10.734c0.006,0.642-0.991,0.642-0.997,0c-0.036-3.678-0.079-7.357-0.106-11.035
						c-0.025-3.421,0.823-6.69,1.52-10.02C258.502,154.96,259.463,155.225,259.331,155.852L259.331,155.852z"/>
				</g>
				<g>
					<path d="M260.009,154.036c2.634,1.406,3.737,4.278,4.241,7.066c0.606,3.358,0.745,6.792,0.471,10.19
						c-0.051,0.635-1.049,0.641-0.997,0c0.251-3.117,0.161-6.261-0.337-9.35c-0.439-2.716-1.278-5.656-3.88-7.046
						C258.939,154.594,259.442,153.734,260.009,154.036L260.009,154.036z"/>
				</g>
				<g>
					<path d="M260.776,155.922c1.737,5.245,2.348,10.81,1.783,16.307c-0.065,0.632-1.063,0.639-0.997,0
						c0.557-5.418-0.035-10.871-1.748-16.042C259.613,155.577,260.575,155.315,260.776,155.922L260.776,155.922z"/>
				</g>
			</g>
			<path style="fill:#E37565;" d="M194.658,203.128c-6.342,1.132-14.513-1.164-21.561-5.158l0,0v11.239
				c0,0,3.111,15.421,16.246,24.326c0,0,13.494-8.471,18.31-24.326v-10.148C203.986,200.949,199.706,202.385,194.658,203.128z"/>
			<path d="M207.652,202.26v-3.197c-3.666,1.887-7.946,3.323-12.994,4.066c-6.342,1.132-14.513-1.164-21.561-5.158v11.239
				c0,0,0.514,2.547,2.006,6.169C180.847,214.477,193.974,211.522,207.652,202.26z"/>
			<path style="opacity:0.63;fill:#DBECF5;" d="M175.712,216.787c-1.961-4.35-2.616-7.577-2.616-7.577s-12.285,5.863-26.581,14.092
				l9.857,13.967C163.263,226.841,171.407,219.982,175.712,216.787z"/>
			<path style="fill:#2F2035;" d="M170.385,102.722c-14.374,4.368-20.904,11.574-20.904,11.574v24.977c0,0,6.945-7.277,23.809-14.81
				C167.763,114.724,168.387,107.504,170.385,102.722z"/>
			<g>
				<path style="fill:#2A1D30;" d="M186.577,381.493c-48.74-8.123-82.914-29.772-90.959-36.971c-8.253-7.385-3.91-21.285,0-48.874
					c1.488-10.5,3.479-21.46,5.375-31.013c-9.436,24.311-24.666,75.534-18.407,91.182c6.95,17.376,94,38.71,109.578,34.366
					l-5.87-3.959C186.294,386.223,186.245,384.313,186.577,381.493z"/>
				<polygon style="fill:#2A1D30;" points="259.619,295.571 265.719,371.888 273.909,371.888 				"/>
			</g>
			<g>
				<path d="M265.719,371.888c-0.26-6.416-0.596-12.829-0.958-19.239c-0.719-12.735-1.563-25.47-2.795-38.167
					c-0.613-6.32-1.303-12.645-2.348-18.911c-0.237-1.425-2.406-0.821-2.17,0.598c1.974,11.845,2.863,23.893,3.738,35.859
					c0.807,11.037,1.448,22.087,1.979,33.141c0.108,2.239,0.213,4.479,0.304,6.719C263.528,373.331,265.778,373.339,265.719,371.888
					L265.719,371.888z"/>
			</g>
			<path style="fill:#D15F54;" d="M186.577,381.493c-0.332,2.82-0.284,4.73-0.284,4.73s13.36,9.122,17.704,11.511
				c4.344,2.389,16.072,8.905,19.113,8.688c0.96-0.069,2.115-0.181,3.259-0.391C213.218,399.283,186.584,381.497,186.577,381.493z"
				/>
			<path style="fill:#D19742;" d="M146.395,239.413l-8.24-11.148c-5.948,3.648-11.903,7.572-17.184,11.545l5.473,6.956
				C133.449,243.239,140.753,240.892,146.395,239.413z"/>
			<path style="fill:#33131C;" d="M188.631,119.369c-0.626,3.946-1.965,7.766-3.681,11.386c-1.711,3.63-3.905,7.034-6.456,10.14
				c-2.595,3.06-5.468,5.924-8.761,8.228c-1.585,1.236-3.342,2.212-5.062,3.233c-0.847,0.534-1.786,0.9-2.688,1.328
				c-0.906,0.42-1.817,0.828-2.728,1.227c3.489-1.931,6.953-3.883,10.014-6.402l1.16-0.921c0.396-0.296,0.78-0.605,1.134-0.951
				l2.183-2c0.734-0.66,1.359-1.43,2.044-2.139l1.006-1.085c0.318-0.376,0.616-0.771,0.927-1.153
				c0.61-0.774,1.283-1.501,1.844-2.313l1.71-2.417l1.55-2.525c0.498-0.852,0.948-1.732,1.438-2.592
				c0.476-0.867,0.874-1.774,1.316-2.66c0.407-0.902,0.788-1.817,1.164-2.734C187.49,123.181,188.125,121.297,188.631,119.369z"/>
			<path style="fill:#33131C;" d="M175.712,123.41c-1.521,1.519-2.955,3.115-4.296,4.785c-0.676,0.829-1.33,1.677-1.984,2.521
				c-0.618,0.873-1.258,1.73-1.858,2.613c-2.416,3.523-4.546,7.242-6.257,11.146c-0.954,1.91-1.637,3.934-2.409,5.921
				c-0.608,2.043-1.306,4.062-1.742,6.153c-1.097,4.138-1.473,8.411-1.82,12.697c-0.007-1.073-0.005-2.149,0.009-3.226
				c0.008-1.078-0.004-2.159,0.136-3.229l0.35-3.219c0.121-1.074,0.387-2.124,0.573-3.188c0.324-2.146,1.058-4.19,1.631-6.277
				c0.351-1.023,0.744-2.031,1.115-3.048c0.35-1.026,0.797-2.011,1.247-2.995c1.812-3.927,3.963-7.708,6.542-11.177
				C169.515,129.415,172.398,126.159,175.712,123.41z"/>
			<path style="fill:#33131C;" d="M157.083,133.898c-0.436,1.167-0.864,2.329-1.235,3.511c-0.395,1.173-0.762,2.353-1.097,3.542
				c-0.67,2.377-1.268,4.77-1.734,7.189c-0.504,2.412-0.853,4.852-1.112,7.304l-0.184,1.843l-0.096,1.85
				c-0.124,1.236-0.052,2.472-0.133,3.721c-0.331-2.464-0.494-4.972-0.354-7.469c-0.002-1.254,0.19-2.493,0.29-3.741
				c0.187-1.236,0.351-2.478,0.609-3.703c0.499-2.451,1.132-4.877,1.985-7.227C154.86,138.367,155.831,136.055,157.083,133.898z"/>
			<path style="fill:#33131C;" d="M202.657,119.031c4.544,1.578,8.781,4.005,12.63,6.924c3.838,2.939,7.22,6.512,9.867,10.591
				c1.288,2.062,2.377,4.244,3.266,6.505c0.841,2.28,1.499,4.627,1.88,7.023c0.723,4.798,0.527,9.694-0.456,14.394
				c0.094-1.199,0.254-2.387,0.32-3.581c0.031-1.197,0.135-2.389,0.063-3.583c0.028-2.388-0.289-4.76-0.684-7.097
				c-0.492-2.324-1.107-4.616-1.97-6.825c-0.895-2.194-1.985-4.304-3.261-6.299c-2.513-4.023-5.826-7.509-9.499-10.527
				c-1.838-1.514-3.791-2.892-5.824-4.147C206.967,121.133,204.852,120.001,202.657,119.031z"/>
			<path style="fill:#33131C;" d="M227.025,173.018c-0.556,2.437-0.815,4.926-0.836,7.41c-0.061,2.483,0.138,4.967,0.539,7.408
				c0.754,4.894,2.393,9.632,4.771,13.962c2.345,4.373,5.04,8.62,7.193,13.165c0.521,1.146,1.034,2.302,1.406,3.519
				c0.399,1.202,0.657,2.471,0.687,3.746c0.04,1.277-0.151,2.542-0.456,3.758c-0.28,1.226-0.686,2.411-1.088,3.595
				c0.581-2.416,1.288-4.874,1.055-7.328c-0.148-2.454-1.197-4.748-2.295-6.954c-2.27-4.423-4.935-8.635-7.381-13.028
				c-2.355-4.459-4.044-9.311-4.649-14.326C225.33,182.957,225.544,177.808,227.025,173.018z"/>
		</g>
		<g>
			<polygon style="fill:#7F84FD;" points="275.454,308.467 211.165,418.368 385.354,418.368 440.956,308.467 			"/>
			<polygon style="fill:#4045BC;" points="211.273,425.644 211.165,418.368 385.354,418.368 385.354,425.644 			"/>
			<polygon style="fill:#DBECF5;" points="211.165,418.368 204.602,415.682 268.504,308.467 275.454,308.467 			"/>
			<path style="fill:#959DFC;" d="M422.537,308.467c-1.309,10.286-6.177,29.944-24.216,52.281
				c-8.996,11.139-29.124,37.914-133.485,57.619h120.518l55.602-109.9H422.537z"/>
		</g>
		<g>
			<path d="M52.939,397.161c6.85,0,13.7,0,20.551,0c0.969,0,1.938,0,2.906,0c1.93,0,1.934-3,0-3c-6.85,0-13.7,0-20.55,0
				c-0.969,0-1.938,0-2.907,0C51.008,394.161,51.005,397.161,52.939,397.161L52.939,397.161z"/>
		</g>
		<g>
			<path d="M470.501,393.832c6.594,0,13.189,0,19.784,0c0.933,0,1.865,0,2.798,0c1.93,0,1.934-3,0-3c-6.595,0-13.189,0-19.784,0
				c-0.933,0-1.865,0-2.798,0C468.571,390.832,468.567,393.832,470.501,393.832L470.501,393.832z"/>
		</g>
		<g>
			<g>
				<path style="fill:#DBECF5;" d="M373.917,187.482c4.275,13.007,8.884,26.381,17.818,37.013c2.536,3.018,5.432,5.651,8.612,7.977
					c1.309,0.957,3.346,0.221,4.105-1.076c0.889-1.52,0.236-3.145-1.076-4.105c-10.166-7.434-15.837-19.376-20.073-30.913
					c-1.274-3.471-2.445-6.978-3.6-10.491c-0.506-1.539-2.074-2.54-3.69-2.095C374.505,184.206,373.408,185.937,373.917,187.482
					L373.917,187.482z"/>
			</g>
			<g>
				<path style="fill:#DBECF5;" d="M322.116,99.603c4.122,1.834,7.609,4.141,10.66,6.998c0.78,0.73,1.531,1.491,2.251,2.28
					c0.377,0.413,0.746,0.834,1.106,1.263c0.163,0.195,0.326,0.391,0.485,0.589c-0.005-0.007,0.569,0.726,0.284,0.354
					c1.36,1.778,2.552,3.681,3.594,5.661c0.754,1.433,2.751,1.868,4.105,1.076c1.452-0.849,1.833-2.666,1.076-4.104
					c-4.446-8.451-11.802-15.412-20.533-19.297c-1.479-0.658-3.224-0.43-4.104,1.076C320.292,96.778,320.628,98.941,322.116,99.603
					L322.116,99.603z"/>
			</g>
			<g>
				<path style="fill:#DBECF5;" d="M126.976,139.805c-12.298,12.822-29.452,18.951-46.423,22.71
					c-5.451,1.207-10.946,2.2-16.445,3.158c-1.597,0.278-2.495,2.236-2.095,3.69c0.464,1.687,2.088,2.374,3.69,2.095
					c18.661-3.25,37.879-7.152,53.919-17.803c4.189-2.781,8.115-5.979,11.597-9.609
					C133.892,141.261,129.655,137.012,126.976,139.805L126.976,139.805z"/>
			</g>
			<g>
				<path style="fill:#DBECF5;" d="M17.276,218.024c-3.04,7.482-4.681,15.474-4.96,23.543c-0.056,1.621,1.419,3,3,3
					c1.672,0,2.944-1.374,3-3c0.26-7.552,1.902-14.949,4.745-21.948c0.61-1.502-0.663-3.297-2.095-3.69
					C19.25,215.457,17.888,216.517,17.276,218.024L17.276,218.024z"/>
			</g>
			<g>
				<path style="fill:#DBECF5;" d="M252.206,74.76c13.551-2.342,27.567-1.152,40.593,3.202c1.536,0.514,3.278-0.593,3.69-2.095
					c0.45-1.636-0.553-3.175-2.095-3.69c-14.082-4.708-29.169-5.728-43.783-3.202c-1.598,0.276-2.495,2.238-2.095,3.69
					C248.98,74.354,250.604,75.037,252.206,74.76L252.206,74.76z"/>
			</g>
		</g>
		<g>
			<path style="fill:#38273F;" d="M431.036,215.816H308.871c-5.861,0-10.612-4.751-10.612-10.612v-80.803
				c0-5.861,4.751-10.612,10.612-10.612h122.165c5.861,0,10.612,4.751,10.612,10.612v80.803
				C441.648,211.065,436.897,215.816,431.036,215.816z"/>
			<path style="fill:#DBECF5;" d="M426.861,212.845H313.046c-5.861,0-10.612-4.751-10.612-10.612v-74.862
				c0-5.861,4.751-10.612,10.612-10.612h113.815c5.861,0,10.612,4.751,10.612,10.612v74.862
				C437.473,208.094,432.722,212.845,426.861,212.845z"/>
			<path style="fill:#7F84FD;" d="M435.808,121.68c-1.884-2.955-5.182-4.921-8.947-4.921H313.046c-3.764,0-7.063,1.966-8.947,4.921
				H435.808z"/>
			<circle style="fill:#FFFFFF;" cx="311.811" cy="119.305" r="1.09"/>
			<circle style="fill:#FFFFFF;" cx="315.889" cy="119.305" r="1.09"/>
			<path style="fill:#FFFFFF;" d="M321.057,119.305c0,0.602-0.488,1.09-1.09,1.09c-0.602,0-1.09-0.488-1.09-1.09
				c0-0.602,0.488-1.09,1.09-1.09C320.568,118.215,321.057,118.703,321.057,119.305z"/>
			<path style="fill:#FFFFFF;" d="M364.542,193.395h-50.894c-1.818,0-3.293-1.474-3.293-3.293v-50.894
				c0-1.818,1.474-3.293,3.293-3.293h50.894c1.818,0,3.293,1.474,3.293,3.293v50.894
				C367.834,191.921,366.36,193.395,364.542,193.395z"/>
			<g>
				<path style="fill:#38273F;" d="M357.828,193.395c-1.629-8.556-3.627-17.801-4.904-19.332c-2.464-2.954-8.764-4.683-8.764-4.683
					l-5.306,10.717l-5.239-10.865c-10.237,2.968-9.813,3.976-11.493,10.865c-0.75,3.077-2.073,8.374-3.306,13.298H357.828z"/>
				<g>
					<path d="M327.744,147.195c0,2.034,0,4.068,0,6.102c0,0.29,0,0.58,0,0.87c0,0.249,0.387,0.249,0.387,0c0-2.034,0-4.068,0-6.102
						c0-0.29,0-0.58,0-0.87C328.131,146.946,327.744,146.946,327.744,147.195L327.744,147.195z"/>
				</g>
				<path d="M327.181,157.928c0,0-0.21-3.675,0.756-3.759c0.966-0.084,1.029,3.759,1.029,3.759h-0.609l-0.147-1.188l-0.146,1.188
					H327.181z"/>
				<path style="fill:#1C1421;" d="M327.905,147.35l10.671,2.228c0.034,0.007,0.07,0.007,0.104,0l10.753-2.229
					c0.241-0.05,0.28-0.377,0.059-0.483l-10.712-5.121c-0.07-0.034-0.151-0.034-0.221,0l-10.713,5.122
					C327.625,146.974,327.665,147.3,327.905,147.35z"/>
				<path style="fill:#2D231A;" d="M344.467,150.681c0,0-3.696-0.63-5.838,1.008c0,0-1.134-1.47-6.048-0.756
					c0,0-2.058,2.436-0.63,6.846c1.428,4.41,10.711,2.142,10.711,2.142s2.184-0.42,3.108-3.57
					C346.693,153.202,345.139,151.311,344.467,150.681z"/>
				<path style="fill:#38273F;" d="M332.58,150.934l-0.252-3.99c0,0,6.216-3.948,12.601,0l-0.462,3.738c0,0-3.696-0.63-5.838,1.008
					C338.629,151.689,337.495,150.219,332.58,150.934z"/>
				<path style="fill:#E37565;" d="M341.722,150.615c-1.049,0.106-2.205,0.394-3.093,1.074c0,0-0.46-0.593-2.053-0.842
					c-1.018,0.508-2.783,1.865-3.869,5.379c0,0,0.714,4.368,1.428,6.426c0.714,2.058,2.1,2.772,4.746,2.814
					c2.646,0.042,4.2-0.336,5.208-3.696c1.008-3.36,1.008-5.124,1.008-5.124S344,152.582,341.722,150.615z"/>
				<path style="fill:#E37565;" d="M332.877,157.207c0,0-0.801-0.813-1.431,0.363c-0.63,1.176,0.64,4.44,2.168,3.228l0,0
					C333.309,159.526,333.041,158.119,332.877,157.207z"/>
				<path style="fill:#E37565;" d="M346.196,157.57c-0.382-0.713-0.825-0.694-1.116-0.57c-0.044,0.594-0.204,1.937-0.763,3.976
					C345.71,161.601,346.785,158.671,346.196,157.57z"/>
				<path style="fill:#E37565;" d="M338.881,165.467c-1.02-0.016-1.85-0.134-2.53-0.388l-0.003,0v2.95c0,0,0.092,2.931,2.28,3.234
					c2.73,0.378,2.73-3.36,2.73-3.36v-2.681C340.659,165.441,339.843,165.482,338.881,165.467z"/>
				<path style="fill:#2D2D2D;" d="M341.359,165.222c-0.7,0.219-1.516,0.26-2.478,0.245c-1.02-0.016-1.85-0.134-2.53-0.388l-0.003,0
					v2.95C339.906,167.861,341.359,165.222,341.359,165.222z"/>
				<path style="fill:#2D2D2D;" d="M336.151,157.527c0,0.603-0.282,1.091-0.63,1.091c-0.348,0-0.63-0.488-0.63-1.091
					s0.282-1.091,0.63-1.091C335.869,156.436,336.151,156.924,336.151,157.527z"/>
				<path style="fill:#2D2D2D;" d="M342.796,157.527c0,0.603-0.282,1.091-0.63,1.091c-0.348,0-0.63-0.488-0.63-1.091
					s0.282-1.091,0.63-1.091C342.513,156.436,342.796,156.924,342.796,157.527z"/>
				<g>
					<path style="fill:#2D2D2D;" d="M334.07,156.176c0.019-0.042,0.042-0.082,0.065-0.122c0.025-0.044,0.052-0.086,0.081-0.128
						c0.018-0.026,0.036-0.052,0.055-0.078c0.009-0.012,0.017-0.024,0.026-0.035c-0.025,0.033,0.008-0.009,0.017-0.021
						c0.098-0.12,0.227-0.249,0.335-0.334c0.129-0.1,0.31-0.201,0.466-0.254c0.244-0.082,0.484-0.097,0.741-0.067
						c0.104,0.012,0.193-0.098,0.193-0.193c0-0.115-0.089-0.181-0.193-0.193c-0.841-0.098-1.593,0.358-2.027,1.06
						c-0.034,0.055-0.067,0.111-0.094,0.17c-0.043,0.095-0.027,0.208,0.069,0.265C333.889,156.294,334.027,156.272,334.07,156.176
						L334.07,156.176z"/>
				</g>
				<g>
					<path style="fill:#2D2D2D;" d="M343.939,155.981c-0.078-0.172-0.195-0.33-0.314-0.474c-0.253-0.306-0.584-0.548-0.962-0.675
						c-0.27-0.09-0.562-0.113-0.844-0.081c-0.104,0.012-0.193,0.08-0.193,0.193c0,0.095,0.089,0.206,0.193,0.193
						c0.43-0.05,0.817,0.041,1.164,0.289c0.055,0.039,0.109,0.084,0.175,0.146c0.059,0.056,0.115,0.115,0.168,0.176
						c0.022,0.026,0.044,0.053,0.065,0.08c-0.02-0.026-0.004-0.005,0.006,0.008c0.011,0.015,0.022,0.03,0.033,0.046
						c0.033,0.046,0.064,0.093,0.093,0.142c0.03,0.049,0.059,0.099,0.083,0.151c0.043,0.095,0.181,0.118,0.264,0.069
						C343.967,156.189,343.982,156.077,343.939,155.981L343.939,155.981z"/>
				</g>
				<path style="opacity:0.63;fill:#DBECF5;" d="M341.359,168.184l-0.013,0c-0.064,0.861-0.446,3.394-2.717,3.079
					c-2.189-0.303-2.28-3.234-2.28-3.234l-2.734,1.204l5.239,10.865l5.306-10.717L341.359,168.184z"/>
				<path style="fill:#EBB04B;" d="M338.751,187.449l8.717-16.898c-1.815-0.76-3.307-1.171-3.307-1.171l-5.306,10.717l-5.239-10.865
					c-1.219,0.353-2.285,0.679-3.223,0.99L338.751,187.449z"/>
				<g>
					<path style="fill:#2D2D2D;" d="M332.081,158.671c0.042-0.202,0.116-0.456,0.279-0.594c0.031-0.026,0.075-0.035,0.096-0.048
						c-0.015,0.01-0.051-0.013-0.049-0.012c0.013,0.008,0.028,0.023-0.014-0.012c0.003,0.003,0.021,0.02,0.021,0.021
						c-0.003,0.003-0.023-0.043,0.006,0.012c0.009,0.018,0.019,0.035,0.028,0.053c0.024,0.048-0.003-0.013,0.013,0.031
						c0.011,0.03,0.021,0.059,0.031,0.089c0.169,0.54,0.203,1.122,0.244,1.683c0.012,0.163,0.023,0.326,0.03,0.49
						c0.011,0.248,0.398,0.249,0.387,0c-0.022-0.496-0.065-0.993-0.132-1.485c-0.051-0.373-0.159-1.557-0.81-1.186
						c-0.288,0.164-0.437,0.546-0.502,0.856C331.657,158.811,332.03,158.915,332.081,158.671L332.081,158.671z"/>
				</g>
				<g>
					<path style="fill:#2D2D2D;" d="M346.242,158.401c-0.039-0.197-0.157-0.404-0.334-0.506c-0.146-0.084-0.346-0.089-0.496-0.011
						c-0.092,0.047-0.159,0.129-0.215,0.214c-0.136,0.208-0.208,0.465-0.27,0.703c-0.068,0.262-0.12,0.528-0.164,0.795
						c-0.026,0.159-0.05,0.319-0.069,0.48c-0.012,0.104,0.098,0.193,0.193,0.193c0.115,0,0.181-0.089,0.193-0.193
						c0.003-0.027,0.007-0.055,0.01-0.082c0.002-0.017-0.007,0.051,0-0.003c0.003-0.018,0.005-0.035,0.007-0.053
						c0.006-0.042,0.012-0.084,0.019-0.126c0.035-0.226,0.075-0.451,0.125-0.674c0.049-0.22,0.117-0.48,0.194-0.665
						c-0.005,0.012,0.019-0.042,0.025-0.054c0.009-0.019,0.019-0.038,0.029-0.057c0.01-0.02,0.021-0.039,0.033-0.058
						c0.006-0.01,0.044-0.061,0.027-0.041c-0.019,0.023,0.019-0.019,0.025-0.025c0.025-0.031-0.014-0.002,0.002-0.004
						c0.005-0.001,0.012-0.008,0.017-0.01c0.034-0.011-0.04,0.011-0.016,0.006c0.044-0.009,0.043-0.013,0.078-0.014
						c0.026-0.001,0.034,0.002,0.047,0.008c0,0,0.046,0.033,0.034,0.021c0.008,0.008,0.016,0.016,0.025,0.024
						c0.026,0.025,0.007,0.006,0.013,0.014c0.016,0.023,0.03,0.046,0.043,0.07c0.005,0.009,0.009,0.019,0.014,0.028
						c0.02,0.038-0.001-0.004,0.003,0.007c0.007,0.019,0.014,0.038,0.02,0.057c0.006,0.019,0.011,0.038,0.015,0.058
						c0.02,0.102,0.142,0.161,0.238,0.135C346.214,158.609,346.262,158.503,346.242,158.401L346.242,158.401z"/>
				</g>
				<path style="fill:#2F2035;" d="M335.387,145.669c-1.871,0.52-3.059,1.274-3.059,1.274l0.252,3.99
					c1.545-0.225,2.716-0.233,3.596-0.139C334.429,148.942,334.923,146.801,335.387,145.669z"/>
				<g>
					<path style="fill:#2D2D2D;" d="M338.964,156.933c-0.002,0.018-0.004,0.036-0.006,0.054c-0.009,0.081-0.004,0.044-0.014,0.111
						c-0.029,0.185-0.063,0.37-0.104,0.553c-0.125,0.55-0.342,1.048-0.546,1.571c-0.118,0.305-0.264,0.722-0.091,1.035
						c0.166,0.3,0.515,0.306,0.813,0.264c0.14-0.02,0.216-0.198,0.182-0.321c-0.041-0.15-0.181-0.202-0.321-0.182
						c-0.042,0.006-0.108,0.007-0.159,0.004c-0.019-0.001,0.021,0.005-0.029-0.005c-0.052-0.011-0.008,0-0.019-0.005
						c-0.049-0.023,0,0.018-0.018-0.014c0.025,0.045-0.002,0.003-0.004-0.014c0.005,0.048-0.001-0.006-0.001-0.022
						c0,0.049,0-0.023,0-0.034c0.016-0.364,0.223-0.728,0.361-1.067c0.247-0.609,0.417-1.271,0.476-1.927
						C339.516,156.598,338.994,156.6,338.964,156.933L338.964,156.933z"/>
				</g>
				<g>
					<path style="fill:#2D2D2D;" d="M338.389,163.272c0.303,0.037,0.616,0.017,0.917-0.023c0.611-0.082,1.214-0.304,1.666-0.737
						c0.311-0.298,0.521-0.683,0.639-1.094c0.093-0.323-0.41-0.462-0.503-0.139c-0.172,0.597-0.58,1.038-1.127,1.263
						c-0.216,0.089-0.493,0.158-0.743,0.194c-0.031,0.005,0.006-0.001,0.01-0.001c-0.016,0.002-0.031,0.004-0.047,0.006
						c-0.027,0.003-0.053,0.006-0.08,0.008c-0.054,0.005-0.108,0.009-0.162,0.012c-0.092,0.005-0.185,0.007-0.277,0.006
						c-0.098-0.001-0.196-0.005-0.293-0.016c-0.14-0.017-0.261,0.132-0.261,0.261C338.128,163.166,338.248,163.255,338.389,163.272
						L338.389,163.272z"/>
				</g>
				<circle style="fill:#D35352;" cx="335.063" cy="160.668" r="1.285"/>
				<circle style="fill:#D35352;" cx="342.794" cy="160.668" r="1.285"/>
			</g>
			<path style="fill:#FFFFFF;" d="M426.261,193.395h-50.895c-1.818,0-3.293-1.474-3.293-3.293v-50.894
				c0-1.818,1.474-3.293,3.293-3.293h50.895c1.818,0,3.292,1.474,3.292,3.293v50.894
				C429.553,191.921,428.079,193.395,426.261,193.395z"/>
			<g>
				<path style="fill:#2D231A;" d="M406.186,150.682c0,0,1.53,1.817,1.779,5.589c0.249,3.772,0.115,9.799,0.115,9.799
					s-6.254,3.828-15.969,0c0,0-0.617-9.872,2.189-15.136C397.106,145.669,405.381,147.103,406.186,150.682z"/>
				<path style="fill:#38273F;" d="M419.547,193.395c-1.629-8.556-3.627-17.801-4.904-19.332c-2.464-2.954-8.764-4.683-8.764-4.683
					l-5.306,10.717l-5.239-10.865c-10.237,2.968-9.813,3.976-11.493,10.865c-0.75,3.077-2.072,8.374-3.306,13.298H419.547z"/>
				<g>
					<path d="M389.463,147.195c0,2.034,0,4.068,0,6.102c0,0.29,0,0.58,0,0.87c0,0.249,0.387,0.249,0.387,0c0-2.034,0-4.068,0-6.102
						c0-0.29,0-0.58,0-0.87C389.85,146.946,389.463,146.946,389.463,147.195L389.463,147.195z"/>
				</g>
				<path d="M388.901,157.928c0,0-0.21-3.675,0.756-3.759c0.966-0.084,1.029,3.759,1.029,3.759h-0.609l-0.147-1.188l-0.146,1.188
					H388.901z"/>
				<path style="fill:#1C1421;" d="M389.624,147.35l10.671,2.228c0.035,0.007,0.07,0.007,0.105,0l10.753-2.229
					c0.241-0.05,0.28-0.377,0.059-0.483l-10.711-5.121c-0.07-0.034-0.151-0.034-0.221,0l-10.713,5.122
					C389.345,146.974,389.384,147.3,389.624,147.35z"/>
				<path style="fill:#E37565;" d="M403.441,150.615c-1.049,0.106-2.205,0.394-3.093,1.074c0,0-0.46-0.593-2.053-0.842
					c-1.018,0.508-2.783,1.865-3.869,5.379c0,0,0.714,4.368,1.428,6.426c0.714,2.058,2.1,2.772,4.746,2.814
					c2.646,0.042,4.2-0.336,5.208-3.696c1.008-3.36,1.008-5.124,1.008-5.124S405.72,152.582,403.441,150.615z"/>
				<path style="fill:#E37565;" d="M394.596,157.207c0,0-0.801-0.813-1.431,0.363c-0.63,1.176,0.64,4.44,2.168,3.228l0,0
					C395.029,159.526,394.76,158.119,394.596,157.207z"/>
				<path style="fill:#E37565;" d="M407.915,157.57c-0.382-0.713-0.825-0.694-1.116-0.57c-0.045,0.594-0.204,1.937-0.763,3.976
					C407.429,161.601,408.504,158.671,407.915,157.57z"/>
				<path style="fill:#E37565;" d="M400.6,165.467c-1.02-0.016-1.851-0.134-2.53-0.388l-0.003,0v2.95c0,0,0.092,2.931,2.28,3.234
					c2.73,0.378,2.73-3.36,2.73-3.36v-2.681C402.379,165.441,401.562,165.482,400.6,165.467z"/>
				<path style="fill:#2D2D2D;" d="M403.078,165.222c-0.699,0.219-1.516,0.26-2.478,0.245c-1.02-0.016-1.851-0.134-2.53-0.388
					l-0.003,0v2.95C401.625,167.861,403.078,165.222,403.078,165.222z"/>
				<path style="fill:#2D2D2D;" d="M397.87,157.527c0,0.603-0.282,1.091-0.63,1.091c-0.348,0-0.63-0.488-0.63-1.091
					s0.282-1.091,0.63-1.091C397.588,156.436,397.87,156.924,397.87,157.527z"/>
				<path style="fill:#2D2D2D;" d="M404.515,157.527c0,0.603-0.282,1.091-0.63,1.091c-0.348,0-0.63-0.488-0.63-1.091
					s0.282-1.091,0.63-1.091C404.233,156.436,404.515,156.924,404.515,157.527z"/>
				<g>
					<path style="fill:#2D2D2D;" d="M395.79,156.176c0.019-0.042,0.042-0.082,0.065-0.122c0.025-0.044,0.052-0.086,0.081-0.128
						c0.018-0.026,0.036-0.052,0.055-0.078c0.009-0.012,0.017-0.024,0.026-0.035c-0.025,0.033,0.008-0.009,0.017-0.021
						c0.098-0.12,0.227-0.249,0.335-0.334c0.129-0.1,0.31-0.201,0.466-0.254c0.244-0.082,0.484-0.097,0.741-0.067
						c0.104,0.012,0.193-0.098,0.193-0.193c0-0.115-0.089-0.181-0.193-0.193c-0.841-0.098-1.593,0.358-2.027,1.06
						c-0.034,0.055-0.067,0.111-0.094,0.17c-0.043,0.095-0.027,0.208,0.069,0.265C395.608,156.294,395.746,156.272,395.79,156.176
						L395.79,156.176z"/>
				</g>
				<g>
					<path style="fill:#2D2D2D;" d="M405.658,155.981c-0.078-0.172-0.195-0.33-0.314-0.474c-0.253-0.306-0.584-0.548-0.962-0.675
						c-0.27-0.09-0.562-0.113-0.844-0.081c-0.104,0.012-0.193,0.08-0.193,0.193c0,0.095,0.089,0.206,0.193,0.193
						c0.43-0.05,0.817,0.041,1.164,0.289c0.055,0.039,0.109,0.084,0.175,0.146c0.059,0.056,0.115,0.115,0.168,0.176
						c0.022,0.026,0.044,0.053,0.065,0.08c-0.02-0.026-0.004-0.005,0.006,0.008c0.011,0.015,0.022,0.03,0.033,0.046
						c0.033,0.046,0.064,0.093,0.093,0.142c0.03,0.049,0.059,0.099,0.082,0.151c0.043,0.095,0.181,0.118,0.265,0.069
						C405.687,156.189,405.702,156.077,405.658,155.981L405.658,155.981z"/>
				</g>
				<path style="opacity:0.63;fill:#DBECF5;" d="M403.078,168.184l-0.013,0c-0.064,0.861-0.446,3.394-2.717,3.079
					c-2.189-0.303-2.28-3.234-2.28-3.234l-2.734,1.204l5.239,10.865l5.306-10.717L403.078,168.184z"/>
				<path style="fill:#EBB04B;" d="M400.47,187.449l8.716-16.898c-1.815-0.76-3.307-1.171-3.307-1.171l-5.306,10.717l-5.239-10.865
					c-1.219,0.353-2.285,0.679-3.223,0.99L400.47,187.449z"/>
				<g>
					<path style="fill:#2D2D2D;" d="M393.8,158.671c0.042-0.202,0.116-0.456,0.279-0.594c0.031-0.026,0.075-0.035,0.096-0.048
						c-0.015,0.01-0.051-0.013-0.049-0.012c0.013,0.008,0.028,0.023-0.014-0.012c0.003,0.003,0.021,0.02,0.021,0.021
						c-0.003,0.003-0.023-0.043,0.006,0.012c0.009,0.018,0.019,0.035,0.028,0.053c0.024,0.048-0.003-0.013,0.013,0.031
						c0.011,0.03,0.021,0.059,0.031,0.089c0.169,0.54,0.203,1.122,0.244,1.683c0.012,0.163,0.023,0.326,0.03,0.49
						c0.011,0.248,0.398,0.249,0.387,0c-0.022-0.496-0.065-0.993-0.132-1.485c-0.051-0.373-0.159-1.557-0.811-1.186
						c-0.288,0.164-0.437,0.546-0.502,0.856C393.377,158.811,393.749,158.915,393.8,158.671L393.8,158.671z"/>
				</g>
				<g>
					<path style="fill:#2D2D2D;" d="M407.961,158.401c-0.039-0.197-0.157-0.404-0.334-0.506c-0.146-0.084-0.346-0.089-0.496-0.011
						c-0.092,0.047-0.16,0.129-0.215,0.214c-0.136,0.208-0.208,0.465-0.27,0.703c-0.069,0.262-0.12,0.528-0.164,0.795
						c-0.026,0.159-0.05,0.319-0.069,0.48c-0.012,0.104,0.098,0.193,0.193,0.193c0.115,0,0.181-0.089,0.193-0.193
						c0.003-0.027,0.007-0.055,0.01-0.082c0.002-0.017-0.007,0.051,0-0.003c0.003-0.018,0.005-0.035,0.007-0.053
						c0.006-0.042,0.012-0.084,0.019-0.126c0.035-0.226,0.075-0.451,0.125-0.674c0.049-0.22,0.117-0.48,0.194-0.665
						c-0.005,0.012,0.019-0.042,0.025-0.054c0.009-0.019,0.018-0.038,0.029-0.057c0.01-0.02,0.022-0.039,0.033-0.058
						c0.006-0.01,0.044-0.061,0.027-0.041c-0.019,0.023,0.019-0.019,0.025-0.025c0.025-0.031-0.014-0.002,0.002-0.004
						c0.005-0.001,0.012-0.008,0.017-0.01c0.034-0.011-0.04,0.011-0.016,0.006c0.043-0.009,0.043-0.013,0.078-0.014
						c0.026-0.001,0.034,0.002,0.047,0.008c0,0,0.046,0.033,0.034,0.021c0.008,0.008,0.016,0.016,0.025,0.024
						c0.026,0.025,0.007,0.006,0.013,0.014c0.016,0.023,0.03,0.046,0.043,0.07c0.005,0.009,0.009,0.019,0.014,0.028
						c0.02,0.038-0.001-0.004,0.003,0.007c0.007,0.019,0.014,0.038,0.02,0.057c0.006,0.019,0.011,0.038,0.015,0.058
						c0.02,0.102,0.142,0.161,0.238,0.135C407.933,158.609,407.981,158.503,407.961,158.401L407.961,158.401z"/>
				</g>
				<g>
					<path style="fill:#2D2D2D;" d="M400.684,156.933c-0.002,0.018-0.004,0.036-0.006,0.054c-0.009,0.081-0.004,0.044-0.015,0.111
						c-0.028,0.185-0.063,0.37-0.104,0.553c-0.125,0.55-0.342,1.048-0.545,1.571c-0.118,0.305-0.264,0.722-0.091,1.035
						c0.166,0.3,0.515,0.306,0.813,0.264c0.14-0.02,0.216-0.198,0.182-0.321c-0.041-0.15-0.181-0.202-0.321-0.182
						c-0.042,0.006-0.108,0.007-0.159,0.004c-0.019-0.001,0.021,0.005-0.029-0.005c-0.052-0.011-0.008,0-0.019-0.005
						c-0.049-0.023,0,0.018-0.018-0.014c0.025,0.045-0.002,0.003-0.004-0.014c0.005,0.048,0-0.006,0-0.022c0,0.049,0-0.023,0-0.034
						c0.016-0.364,0.223-0.728,0.361-1.067c0.247-0.609,0.417-1.271,0.476-1.927C401.236,156.598,400.713,156.6,400.684,156.933
						L400.684,156.933z"/>
				</g>
				<g>
					<path style="fill:#2D2D2D;" d="M400.108,163.272c0.303,0.037,0.616,0.017,0.917-0.023c0.611-0.082,1.214-0.304,1.666-0.737
						c0.311-0.298,0.521-0.683,0.639-1.094c0.093-0.323-0.41-0.462-0.503-0.139c-0.172,0.597-0.58,1.038-1.127,1.263
						c-0.216,0.089-0.493,0.158-0.743,0.194c-0.031,0.005,0.006-0.001,0.01-0.001c-0.016,0.002-0.031,0.004-0.047,0.006
						c-0.027,0.003-0.053,0.006-0.08,0.008c-0.054,0.005-0.108,0.009-0.162,0.012c-0.092,0.005-0.185,0.007-0.277,0.006
						c-0.098-0.001-0.196-0.005-0.293-0.016c-0.14-0.017-0.261,0.132-0.261,0.261C399.847,163.166,399.967,163.255,400.108,163.272
						L400.108,163.272z"/>
				</g>
				<circle style="fill:#D35352;" cx="396.783" cy="160.668" r="1.285"/>
				<path style="fill:#D35352;" d="M405.798,160.668c0,0.71-0.575,1.285-1.285,1.285c-0.71,0-1.285-0.575-1.285-1.285
					c0-0.71,0.575-1.285,1.285-1.285C405.223,159.383,405.798,159.958,405.798,160.668z"/>
				<path style="fill:#2D231A;" d="M394.596,157.207c0,0,4.791-0.883,10.263-6.639c0,0-2.23-3.596-6.256-1.684
					C392.698,151.689,394.596,157.207,394.596,157.207z"/>
				<path style="fill:#38273F;" d="M394.3,150.934l-0.252-3.99c0,0,6.216-3.948,12.601,0l-0.462,3.738c0,0-3.696-0.63-5.838,1.008
					C400.348,151.689,399.214,150.219,394.3,150.934z"/>
				<path style="fill:#2F2035;" d="M397.106,145.669c-1.87,0.52-3.059,1.274-3.059,1.274l0.252,3.99
					c1.545-0.225,2.716-0.233,3.596-0.139C396.148,148.942,396.642,146.801,397.106,145.669z"/>
			</g>
		</g>
		<g>
			<g>
				<path style="fill:#7F84FD;" d="M89.661,242.484c-0.603,4.002,0.057,8.039,2.01,11.598c0.39,0.71,1.367,0.939,2.052,0.538
					c0.716-0.419,0.929-1.34,0.538-2.052c-0.796-1.451-1.32-2.945-1.628-4.62c-0.256-1.395-0.29-3.274-0.08-4.666
					c0.121-0.8-0.201-1.613-1.048-1.845C90.798,241.242,89.782,241.678,89.661,242.484L89.661,242.484z"/>
			</g>
			<g>
				<path style="fill:#7F84FD;" d="M279.022,228.102c-0.774,4.115,0.625,8.532,3.823,11.294c0.613,0.529,1.519,0.602,2.121,0
					c0.541-0.541,0.616-1.59,0-2.121c-0.316-0.273-0.618-0.561-0.899-0.871c-0.148-0.163-0.292-0.331-0.429-0.505
					c0.098,0.125,0.013,0.017-0.033-0.048c-0.071-0.1-0.142-0.2-0.211-0.302c-0.233-0.346-0.445-0.706-0.636-1.078
					c-0.045-0.088-0.088-0.176-0.131-0.264c0.005,0.01-0.163-0.356-0.106-0.224c0.052,0.12-0.055-0.138-0.064-0.162
					c-0.044-0.115-0.087-0.23-0.128-0.346c-0.138-0.394-0.253-0.797-0.344-1.205c-0.048-0.216-0.089-0.433-0.125-0.651
					c-0.018-0.106-0.025-0.201-0.007-0.039c-0.011-0.098-0.021-0.195-0.03-0.293c-0.039-0.44-0.049-0.883-0.03-1.324
					c0.009-0.196,0.026-0.392,0.043-0.587c0.023-0.278-0.014,0.053,0.013-0.113c0.02-0.121,0.041-0.242,0.064-0.363
					c0.145-0.769-0.213-1.655-1.048-1.845C280.129,226.887,279.177,227.278,279.022,228.102L279.022,228.102z"/>
			</g>
			<g>
				<path style="fill:#7F84FD;" d="M317.976,254.549c0.819,0.681,1.64,1.368,2.348,2.166c0.354,0.399,0.483,0.57,0.766,1.065
					c0.054,0.094,0.105,0.189,0.154,0.285c-0.012-0.024,0.201,0.455,0.116,0.24c-0.079-0.201,0.07,0.22,0.065,0.204
					c0.041,0.131,0.077,0.264,0.107,0.398c0.02,0.09,0.036,0.18,0.053,0.27c-0.056-0.292-0.002,0.001,0.004,0.08
					c0.015,0.205,0.017,0.411,0.006,0.617c-0.005,0.09-0.012,0.182-0.023,0.271c0.044-0.348-0.03,0.087-0.04,0.132
					c-0.021,0.086-0.045,0.172-0.072,0.257c-0.016,0.051-0.184,0.409-0.042,0.133c-0.048,0.095-0.37,0.585-0.185,0.357
					c-0.111,0.136-0.236,0.261-0.369,0.375c0.2-0.172,0.008-0.017-0.053,0.022c-0.089,0.058-0.313,0.117-0.001,0.019
					c-0.073,0.023-0.143,0.048-0.217,0.067c-0.188,0.049-0.29,0.018-0.051,0.02c-0.113-0.001-0.231,0-0.344,0.004
					c-0.093,0.003-0.261-0.059,0.055,0.016c-0.153-0.036-0.351-0.121-0.502-0.13c-0.183-0.011,0.27,0.162-0.01-0.005
					c-0.065-0.038-0.133-0.071-0.197-0.11c-0.019-0.011-0.301-0.228-0.12-0.076c0.175,0.148-0.098-0.126-0.128-0.142
					c-0.138-0.074,0.138,0.27,0.008,0.007c-0.03-0.061-0.069-0.124-0.102-0.185c0.166,0.301,0.044,0.125,0.027,0.01
					c-0.03-0.208-0.036,0.37,0.004,0.023c0.009-0.076,0.033-0.257-0.024,0.037c0.021-0.11,0.048-0.217,0.085-0.323
					c0.007-0.021,0.015-0.042,0.022-0.062c-0.064,0.158-0.056,0.16,0.023,0.006c0.024-0.037,0.048-0.073,0.072-0.11
					c-0.103,0.127-0.098,0.125,0.016-0.006c0.066-0.061,0.129-0.127,0.194-0.189c0.302-0.291-0.131,0.077,0.079-0.062
					c0.179-0.118,0.363-0.219,0.552-0.32c0.394-0.211-0.145,0.046,0.102-0.049c0.111-0.043,0.223-0.082,0.337-0.118
					c0.236-0.075,0.478-0.135,0.721-0.185c0.79-0.165,1.773-0.192,2.577,0.015c0.155,0.04,0.305,0.09,0.457,0.139
					c0.257,0.082-0.029-0.041,0.228,0.096c0.229,0.122,0.457,0.246,0.665,0.402c-0.215-0.161,0.017,0.028,0.066,0.074
					c0.101,0.095,0.195,0.196,0.287,0.299c0.17,0.189-0.172-0.281,0.063,0.08c0.076,0.117,0.151,0.232,0.219,0.354
					c0.045,0.081,0.086,0.163,0.126,0.246c-0.129-0.265,0.03,0.09,0.05,0.153c0.042,0.131,0.068,0.263,0.104,0.395
					c0.082,0.301,0.021-0.2,0.017,0.136c-0.001,0.089,0.007,0.178,0.005,0.268c-0.002,0.089-0.083,0.422-0.001,0.13
					c-0.03,0.106-0.053,0.216-0.081,0.323c-0.019,0.064-0.041,0.128-0.065,0.19c0.063-0.152,0.055-0.149-0.022,0.009
					c-0.38,0.715-0.181,1.632,0.538,2.052c0.679,0.397,1.671,0.18,2.052-0.538c1.377-2.596,0.059-5.884-2.509-7.164
					c-2.573-1.283-6.204-1.047-8.475,0.778c-1.106,0.889-1.751,2.36-1.362,3.77c0.351,1.273,1.443,2.163,2.66,2.563
					c1.167,0.384,2.568,0.24,3.571-0.49c1.216-0.886,1.842-2.22,1.994-3.694c0.34-3.32-2.136-5.772-4.475-7.717
					c-0.622-0.518-1.512-0.61-2.121,0C317.443,252.961,317.35,254.029,317.976,254.549L317.976,254.549z"/>
			</g>
			<g>
				<path style="fill:#7F84FD;" d="M131.793,298.367c-1.691-0.368-3.214,0.38-4.227,1.729c-0.974,1.298-1.166,2.918-0.808,4.472
					c0.341,1.479,1.179,2.934,2.068,4.154c1.016,1.392,2.96,2.513,4.448,1.057c0.562-0.55,0.593-1.577,0-2.121
					c-0.604-0.555-1.522-0.587-2.121,0c0.121-0.119,0.354-0.188,0.518-0.182c0.066,0.012,0.131,0.024,0.196,0.036
					c-0.128-0.039-0.137-0.035-0.028,0.011c0.092,0.045,0.1,0.048,0.023,0.01c-0.053-0.026-0.105-0.055-0.155-0.087
					c-0.232-0.115,0.061,0.085-0.047-0.028c-0.073-0.077-0.159-0.145-0.232-0.223c-0.049-0.052-0.251-0.354-0.085-0.085
					c-0.13-0.21-0.272-0.413-0.404-0.622c-0.293-0.463-0.576-0.934-0.822-1.424c-0.058-0.116-0.114-0.232-0.168-0.35
					c0.081,0.18-0.031-0.075-0.055-0.14c-0.098-0.262-0.182-0.529-0.245-0.802c-0.008-0.033-0.08-0.41-0.055-0.248
					c0.025,0.16-0.017-0.22-0.019-0.255c-0.005-0.123-0.007-0.247-0.001-0.37c0.007-0.164,0.043-0.241-0.005-0.039
					c0.029-0.125,0.053-0.247,0.089-0.37c0.011-0.037,0.131-0.365,0.056-0.181c-0.075,0.184,0.07-0.133,0.089-0.168
					c0.051-0.093,0.106-0.184,0.165-0.273c0.076-0.114,0.173-0.201,0.031-0.051c0.085-0.091,0.173-0.18,0.258-0.271
					c0.187-0.199-0.108,0.05,0.029-0.037c0.084-0.053,0.171-0.106,0.254-0.161c0.283-0.185-0.247,0.049,0.075-0.04
					c0.071-0.02,0.159-0.033,0.226-0.062c-0.187,0.017-0.223,0.021-0.108,0.012c0.059-0.006,0.118-0.008,0.177-0.007
					c0.303-0.033-0.248-0.064,0.083,0.008c0.765,0.166,1.659-0.228,1.845-1.048C133.013,299.456,132.613,298.546,131.793,298.367
					L131.793,298.367z"/>
			</g>
			<g>
				<path style="fill:#EBB04B;" d="M71.957,277.608c0.196,0.095,0.39,0.196,0.577,0.308c0.112,0.067,0.222,0.137,0.33,0.21
					c0.029,0.02,0.317,0.225,0.164,0.111c-0.152-0.113,0.125,0.103,0.153,0.126c0.083,0.07,0.163,0.142,0.243,0.216
					c0.175,0.162,0.342,0.333,0.501,0.511c0.058,0.065,0.113,0.132,0.17,0.197c0.275,0.314-0.152-0.235,0.086,0.108
					c0.124,0.179,0.249,0.357,0.362,0.543c0.114,0.186,0.22,0.377,0.318,0.571c0.059,0.117,0.113,0.236,0.169,0.354
					c-0.092-0.193-0.02-0.052,0.025,0.065c0.157,0.407,0.282,0.827,0.373,1.253c0.023,0.107,0.041,0.214,0.062,0.321
					c0.081,0.419-0.021-0.306,0.018,0.118c0.02,0.217,0.037,0.433,0.042,0.65c0.005,0.217,0.001,0.434-0.013,0.65
					c-0.007,0.107-0.026,0.217-0.028,0.324c-0.004,0.179,0.05-0.234-0.009,0.052c-0.098,0.473-0.212,0.928-0.387,1.38
					c-0.284,0.733,0.312,1.678,1.048,1.845c0.859,0.196,1.541-0.262,1.845-1.048c1.626-4.203-0.488-9.496-4.536-11.456
					c-0.729-0.353-1.621-0.199-2.052,0.538C71.034,276.214,71.225,277.254,71.957,277.608L71.957,277.608z"/>
			</g>
			<g>
				<path style="fill:#EBB04B;" d="M308.927,235.535c-1.488,0.569-2.702,1.665-3.337,3.14c-0.339,0.786-0.548,1.59-0.565,2.453
					c-0.016,0.867,0.197,1.661,0.534,2.449c0.137,0.321,0.577,0.601,0.896,0.689c0.359,0.099,0.837,0.054,1.156-0.151
					c0.32-0.206,0.602-0.514,0.689-0.896c0.096-0.42,0.017-0.764-0.151-1.156c0.205,0.478,0.019,0.019-0.017-0.105
					c-0.039-0.133-0.066-0.268-0.095-0.403c-0.054-0.247,0.029,0.322,0.015,0.138c-0.005-0.063-0.013-0.125-0.017-0.188
					c-0.01-0.138-0.012-0.276-0.008-0.414c0.003-0.123-0.011-0.298,0.031-0.414c-0.024,0.066-0.066,0.391-0.014,0.137
					c0.013-0.062,0.023-0.124,0.037-0.186c0.03-0.136,0.067-0.27,0.108-0.403c0.043-0.137,0.251-0.551,0.021-0.105
					c0.122-0.238,0.23-0.477,0.376-0.703c0.034-0.053,0.07-0.105,0.106-0.157c0.083-0.118,0.228-0.206-0.052,0.062
					c0.09-0.086,0.163-0.193,0.25-0.284c0.096-0.1,0.198-0.192,0.301-0.285c0.179-0.163-0.026,0.026-0.099,0.069
					c0.063-0.038,0.123-0.09,0.184-0.131c0.104-0.07,0.212-0.135,0.323-0.195c0.067-0.036,0.135-0.068,0.203-0.102
					c0.235-0.119-0.342,0.135-0.078,0.034c0.375-0.143,0.687-0.332,0.897-0.689c0.188-0.322,0.268-0.795,0.151-1.156
					C310.541,235.87,309.711,235.234,308.927,235.535L308.927,235.535z"/>
			</g>
			<g>
				<path style="fill:#EBB04B;" d="M238.594,305.456c-5.341,0.876-7.187,8.113-5.03,12.413c1.221,2.433,4.184,3.674,6.604,2.122
					c1.103-0.708,1.881-1.884,1.786-3.231c-0.094-1.348-0.961-2.491-2.175-3.051c-1.337-0.617-2.823-0.685-4.254-0.398
					c-1.251,0.251-2.998,1.079-4.233,0.518c-0.737-0.334-1.614-0.211-2.052,0.538c-0.376,0.643-0.203,1.716,0.538,2.052
					c1.313,0.596,2.594,0.633,3.998,0.38c0.586-0.106,1.161-0.262,1.739-0.406c0.268-0.067,0.537-0.135,0.808-0.19
					c0.096-0.019,0.192-0.039,0.289-0.053c-0.218,0.03,0.035,0.002,0.126-0.002c0.23-0.01,0.459-0.015,0.69-0.002
					c0.101,0.006,0.205,0.012,0.305,0.026c-0.078-0.01-0.227-0.055,0.051,0.017c0.545,0.141,0.599,0.132,0.97,0.376
					c-0.224-0.148,0.139,0.139,0.193,0.208c-0.195-0.253-0.007,0.003-0.012,0.023c0.051-0.176-0.1-0.099,0.004,0.016
					c0.086,0.095,0.042,0.19,0.025,0.016c0.009,0.088,0.007,0.181,0.001,0.27c0.027-0.4,0.005-0.002-0.018-0.014
					c0.078-0.156,0.078-0.157,0-0.002c-0.022,0.037-0.044,0.074-0.066,0.112c0.126-0.223-0.104,0.109-0.2,0.195
					c0.185-0.166-0.176,0.098-0.267,0.151c-0.365,0.21,0.138-0.033-0.098,0.04c-0.091,0.028-0.182,0.054-0.274,0.078
					c-0.041,0.011-0.332,0.051-0.152,0.033c0.185-0.018-0.191-0.005-0.226-0.003c-0.406,0.027,0.134,0.048-0.092-0.003
					c-0.092-0.021-0.182-0.045-0.271-0.073c-0.225-0.07,0.19,0.111-0.04-0.022c-0.095-0.055-0.191-0.108-0.282-0.171
					c-0.205-0.141-0.484-0.468-0.663-0.773c-0.844-1.44-0.816-3.275-0.339-4.868c0.241-0.803,0.7-1.683,1.205-2.233
					c0.654-0.713,1.228-1.035,2.212-1.196c0.8-0.131,1.246-1.124,1.048-1.845C240.206,305.654,239.396,305.324,238.594,305.456
					L238.594,305.456z"/>
			</g>
			<g>
				<path style="fill:#E15672;" d="M157.256,328.621c-4.566,2.712-5.356,9.985-1.273,13.493c0.614,0.528,1.518,0.603,2.121,0
					c0.54-0.54,0.617-1.591,0-2.121c-0.201-0.173-0.393-0.354-0.571-0.551c-0.045-0.05-0.288-0.349-0.098-0.101
					c-0.066-0.086-0.128-0.176-0.188-0.266c-0.133-0.198-0.254-0.405-0.363-0.617c-0.059-0.116-0.116-0.234-0.168-0.353
					c0.132,0.305-0.028-0.094-0.04-0.128c-0.079-0.227-0.146-0.458-0.201-0.692c-0.025-0.107-0.049-0.214-0.069-0.322
					c-0.021-0.111-0.058-0.394-0.027-0.123c-0.058-0.505-0.068-1.014-0.028-1.521c0.009-0.11,0.019-0.22,0.033-0.33
					c-0.042,0.349,0.02-0.086,0.028-0.126c0.045-0.238,0.102-0.475,0.17-0.708c0.067-0.233,0.147-0.461,0.235-0.686
					c-0.117,0.297,0.031-0.06,0.061-0.122c0.057-0.118,0.118-0.234,0.182-0.348c0.117-0.209,0.247-0.409,0.383-0.607
					c0.037-0.053,0.076-0.106,0.115-0.158c-0.088,0.115-0.099,0.131-0.031,0.049c0.072-0.082,0.141-0.164,0.216-0.244
					c0.179-0.191,0.371-0.367,0.571-0.535c-0.199,0.167,0.044-0.03,0.118-0.08c0.11-0.075,0.224-0.144,0.338-0.212
					C160.428,330.226,158.921,327.632,157.256,328.621L157.256,328.621z"/>
			</g>
			<g>
				<path style="fill:#E15672;" d="M315.575,286.176c2.603,3.126,2.903,7.828,0.906,11.308c-0.962,1.677,1.629,3.19,2.591,1.514
					c2.71-4.722,2.087-10.786-1.375-14.944c-0.519-0.623-1.585-0.536-2.121,0C314.959,284.671,315.055,285.552,315.575,286.176
					L315.575,286.176z"/>
			</g>
			<g>
				<path style="fill:#E15672;" d="M230.523,261.141c-0.412,4.748,2.151,9.541,6.242,11.944c0.699,0.41,1.644,0.16,2.052-0.538
					c0.411-0.703,0.163-1.641-0.538-2.052c-1.621-0.952-2.841-2.277-3.731-4.001c-0.405-0.784-0.673-1.537-0.884-2.534
					c-0.027-0.129-0.053-0.258-0.075-0.387c-0.006-0.034-0.063-0.413-0.044-0.268c0.017,0.128-0.027-0.279-0.026-0.271
					c-0.009-0.105-0.017-0.21-0.023-0.315c-0.031-0.526-0.018-1.052,0.028-1.577c0.07-0.808-0.74-1.5-1.5-1.5
					C231.153,259.641,230.593,260.33,230.523,261.141L230.523,261.141z"/>
			</g>
			<g>
				<path style="fill:#E15672;" d="M148.407,289.851c0.624,0.019,1.226,0.181,1.834,0.53c0.175,0.1,0.345,0.21,0.509,0.327
					c0.248,0.178,0.107,0.084,0.057,0.043c0.078,0.064,0.155,0.132,0.23,0.2c0.15,0.137,0.295,0.281,0.432,0.431
					c0.052,0.057,0.362,0.439,0.25,0.288c0.245,0.33,0.438,0.686,0.63,1.048c0.014,0.027,0.119,0.26,0.034,0.06
					c0.039,0.093,0.074,0.19,0.107,0.285c0.067,0.191,0.124,0.385,0.172,0.581c0.149,0.61,0.155,1.336-0.02,1.966
					c-0.103,0.37-0.174,0.55-0.417,0.929c-0.141,0.22-0.41,0.497-0.61,0.595c0.058-0.029-0.446,0.104-0.156,0.073
					c-0.094,0.01-0.197,0.008-0.292,0.001c0.248,0.016,0.02-0.007-0.035-0.017c-0.245-0.047-0.136-0.039-0.051-0.001
					c-0.084-0.038-0.176-0.091-0.25-0.143c0.114,0.08,0.046,0.107-0.021-0.037c0.109,0.234-0.067-0.136,0.009,0.021
					c0.078,0.159,0.012-0.195-0.007-0.035c-0.018,0.149,0.039-0.095,0.015-0.106c0.055,0.024-0.025,0.149-0.043,0.175
					c0.058-0.083,0.093-0.183,0.154-0.266c-0.141,0.193,0.309-0.283,0.143-0.146c0.189-0.157,0.428-0.283,0.649-0.387
					c0.137-0.065,0.69-0.228,1.015-0.297c0.38-0.081,0.736-0.119,1.238-0.122c1.898-0.012,3.749,0.741,5.095,2.148
					c1.337,1.398,3.456-0.725,2.121-2.121c-1.876-1.961-4.591-3.071-7.303-3.026c-2.531,0.042-6.445,1.337-6.038,4.555
					c0.18,1.422,1.377,2.499,2.763,2.737c1.455,0.25,2.848-0.37,3.766-1.508c1.72-2.135,1.709-5.038,0.551-7.429
					c-1.208-2.493-3.748-4.269-6.532-4.354c-0.81-0.025-1.5,0.707-1.5,1.5C146.907,289.185,147.594,289.826,148.407,289.851
					L148.407,289.851z"/>
			</g>
		</g>
	</g>
</g>
</svg>
